<?xml version="1.0" encoding="utf-8" standalone="no"?>
<!DOCTYPE svg PUBLIC "-//W3C//DTD SVG 1.1//EN"
  "http://www.w3.org/Graphics/SVG/1.1/DTD/svg11.dtd">
<!-- Created with matplotlib (https://matplotlib.org/) -->
<svg height="277.314375pt" version="1.1" viewBox="0 0 397.345312 277.314375" width="397.345312pt" xmlns="http://www.w3.org/2000/svg" xmlns:xlink="http://www.w3.org/1999/xlink">
 <metadata>
  <rdf:RDF xmlns:cc="http://creativecommons.org/ns#" xmlns:dc="http://purl.org/dc/elements/1.1/" xmlns:rdf="http://www.w3.org/1999/02/22-rdf-syntax-ns#">
   <cc:Work>
    <dc:type rdf:resource="http://purl.org/dc/dcmitype/StillImage"/>
    <dc:date>2021-05-10T16:13:50.827672</dc:date>
    <dc:format>image/svg+xml</dc:format>
    <dc:creator>
     <cc:Agent>
      <dc:title>Matplotlib v3.3.2, https://matplotlib.org/</dc:title>
     </cc:Agent>
    </dc:creator>
   </cc:Work>
  </rdf:RDF>
 </metadata>
 <defs>
  <style type="text/css">*{stroke-linecap:butt;stroke-linejoin:round;}</style>
 </defs>
 <g id="figure_1">
  <g id="patch_1">
   <path d="M 0 277.314375 
L 397.345312 277.314375 
L 397.345312 0 
L 0 0 
z
" style="fill:none;"/>
  </g>
  <g id="axes_1">
   <g id="patch_2">
    <path d="M 55.345313 239.758125 
L 390.145312 239.758125 
L 390.145312 22.318125 
L 55.345313 22.318125 
z
" style="fill:#ffffff;"/>
   </g>
   <g id="matplotlib.axis_1">
    <g id="xtick_1">
     <g id="line2d_1">
      <defs>
       <path d="M 0 0 
L 0 3.5 
" id="mefe4fd7ee1" style="stroke:#000000;stroke-width:0.8;"/>
      </defs>
      <g>
       <use style="stroke:#000000;stroke-width:0.8;" x="70.563494" xlink:href="#mefe4fd7ee1" y="239.758125"/>
      </g>
     </g>
     <g id="text_1">
      <!-- 0 -->
      <g transform="translate(67.382244 254.356562)scale(0.1 -0.1)">
       <defs>
        <path d="M 31.78125 66.40625 
Q 24.171875 66.40625 20.328125 58.90625 
Q 16.5 51.421875 16.5 36.375 
Q 16.5 21.390625 20.328125 13.890625 
Q 24.171875 6.390625 31.78125 6.390625 
Q 39.453125 6.390625 43.28125 13.890625 
Q 47.125 21.390625 47.125 36.375 
Q 47.125 51.421875 43.28125 58.90625 
Q 39.453125 66.40625 31.78125 66.40625 
z
M 31.78125 74.21875 
Q 44.046875 74.21875 50.515625 64.515625 
Q 56.984375 54.828125 56.984375 36.375 
Q 56.984375 17.96875 50.515625 8.265625 
Q 44.046875 -1.421875 31.78125 -1.421875 
Q 19.53125 -1.421875 13.0625 8.265625 
Q 6.59375 17.96875 6.59375 36.375 
Q 6.59375 54.828125 13.0625 64.515625 
Q 19.53125 74.21875 31.78125 74.21875 
z
" id="DejaVuSans-48"/>
       </defs>
       <use xlink:href="#DejaVuSans-48"/>
      </g>
     </g>
    </g>
    <g id="xtick_2">
     <g id="line2d_2">
      <g>
       <use style="stroke:#000000;stroke-width:0.8;" x="132.678522" xlink:href="#mefe4fd7ee1" y="239.758125"/>
      </g>
     </g>
     <g id="text_2">
      <!-- 10 -->
      <g transform="translate(126.316022 254.356562)scale(0.1 -0.1)">
       <defs>
        <path d="M 12.40625 8.296875 
L 28.515625 8.296875 
L 28.515625 63.921875 
L 10.984375 60.40625 
L 10.984375 69.390625 
L 28.421875 72.90625 
L 38.28125 72.90625 
L 38.28125 8.296875 
L 54.390625 8.296875 
L 54.390625 0 
L 12.40625 0 
z
" id="DejaVuSans-49"/>
       </defs>
       <use xlink:href="#DejaVuSans-49"/>
       <use x="63.623047" xlink:href="#DejaVuSans-48"/>
      </g>
     </g>
    </g>
    <g id="xtick_3">
     <g id="line2d_3">
      <g>
       <use style="stroke:#000000;stroke-width:0.8;" x="194.79355" xlink:href="#mefe4fd7ee1" y="239.758125"/>
      </g>
     </g>
     <g id="text_3">
      <!-- 20 -->
      <g transform="translate(188.43105 254.356562)scale(0.1 -0.1)">
       <defs>
        <path d="M 19.1875 8.296875 
L 53.609375 8.296875 
L 53.609375 0 
L 7.328125 0 
L 7.328125 8.296875 
Q 12.9375 14.109375 22.625 23.890625 
Q 32.328125 33.6875 34.8125 36.53125 
Q 39.546875 41.84375 41.421875 45.53125 
Q 43.3125 49.21875 43.3125 52.78125 
Q 43.3125 58.59375 39.234375 62.25 
Q 35.15625 65.921875 28.609375 65.921875 
Q 23.96875 65.921875 18.8125 64.3125 
Q 13.671875 62.703125 7.8125 59.421875 
L 7.8125 69.390625 
Q 13.765625 71.78125 18.9375 73 
Q 24.125 74.21875 28.421875 74.21875 
Q 39.75 74.21875 46.484375 68.546875 
Q 53.21875 62.890625 53.21875 53.421875 
Q 53.21875 48.921875 51.53125 44.890625 
Q 49.859375 40.875 45.40625 35.40625 
Q 44.1875 33.984375 37.640625 27.21875 
Q 31.109375 20.453125 19.1875 8.296875 
z
" id="DejaVuSans-50"/>
       </defs>
       <use xlink:href="#DejaVuSans-50"/>
       <use x="63.623047" xlink:href="#DejaVuSans-48"/>
      </g>
     </g>
    </g>
    <g id="xtick_4">
     <g id="line2d_4">
      <g>
       <use style="stroke:#000000;stroke-width:0.8;" x="256.908578" xlink:href="#mefe4fd7ee1" y="239.758125"/>
      </g>
     </g>
     <g id="text_4">
      <!-- 30 -->
      <g transform="translate(250.546078 254.356562)scale(0.1 -0.1)">
       <defs>
        <path d="M 40.578125 39.3125 
Q 47.65625 37.796875 51.625 33 
Q 55.609375 28.21875 55.609375 21.1875 
Q 55.609375 10.40625 48.1875 4.484375 
Q 40.765625 -1.421875 27.09375 -1.421875 
Q 22.515625 -1.421875 17.65625 -0.515625 
Q 12.796875 0.390625 7.625 2.203125 
L 7.625 11.71875 
Q 11.71875 9.328125 16.59375 8.109375 
Q 21.484375 6.890625 26.8125 6.890625 
Q 36.078125 6.890625 40.9375 10.546875 
Q 45.796875 14.203125 45.796875 21.1875 
Q 45.796875 27.640625 41.28125 31.265625 
Q 36.765625 34.90625 28.71875 34.90625 
L 20.21875 34.90625 
L 20.21875 43.015625 
L 29.109375 43.015625 
Q 36.375 43.015625 40.234375 45.921875 
Q 44.09375 48.828125 44.09375 54.296875 
Q 44.09375 59.90625 40.109375 62.90625 
Q 36.140625 65.921875 28.71875 65.921875 
Q 24.65625 65.921875 20.015625 65.03125 
Q 15.375 64.15625 9.8125 62.3125 
L 9.8125 71.09375 
Q 15.4375 72.65625 20.34375 73.4375 
Q 25.25 74.21875 29.59375 74.21875 
Q 40.828125 74.21875 47.359375 69.109375 
Q 53.90625 64.015625 53.90625 55.328125 
Q 53.90625 49.265625 50.4375 45.09375 
Q 46.96875 40.921875 40.578125 39.3125 
z
" id="DejaVuSans-51"/>
       </defs>
       <use xlink:href="#DejaVuSans-51"/>
       <use x="63.623047" xlink:href="#DejaVuSans-48"/>
      </g>
     </g>
    </g>
    <g id="xtick_5">
     <g id="line2d_5">
      <g>
       <use style="stroke:#000000;stroke-width:0.8;" x="319.023606" xlink:href="#mefe4fd7ee1" y="239.758125"/>
      </g>
     </g>
     <g id="text_5">
      <!-- 40 -->
      <g transform="translate(312.661106 254.356562)scale(0.1 -0.1)">
       <defs>
        <path d="M 37.796875 64.3125 
L 12.890625 25.390625 
L 37.796875 25.390625 
z
M 35.203125 72.90625 
L 47.609375 72.90625 
L 47.609375 25.390625 
L 58.015625 25.390625 
L 58.015625 17.1875 
L 47.609375 17.1875 
L 47.609375 0 
L 37.796875 0 
L 37.796875 17.1875 
L 4.890625 17.1875 
L 4.890625 26.703125 
z
" id="DejaVuSans-52"/>
       </defs>
       <use xlink:href="#DejaVuSans-52"/>
       <use x="63.623047" xlink:href="#DejaVuSans-48"/>
      </g>
     </g>
    </g>
    <g id="xtick_6">
     <g id="line2d_6">
      <g>
       <use style="stroke:#000000;stroke-width:0.8;" x="381.138633" xlink:href="#mefe4fd7ee1" y="239.758125"/>
      </g>
     </g>
     <g id="text_6">
      <!-- 50 -->
      <g transform="translate(374.776133 254.356562)scale(0.1 -0.1)">
       <defs>
        <path d="M 10.796875 72.90625 
L 49.515625 72.90625 
L 49.515625 64.59375 
L 19.828125 64.59375 
L 19.828125 46.734375 
Q 21.96875 47.46875 24.109375 47.828125 
Q 26.265625 48.1875 28.421875 48.1875 
Q 40.625 48.1875 47.75 41.5 
Q 54.890625 34.8125 54.890625 23.390625 
Q 54.890625 11.625 47.5625 5.09375 
Q 40.234375 -1.421875 26.90625 -1.421875 
Q 22.3125 -1.421875 17.546875 -0.640625 
Q 12.796875 0.140625 7.71875 1.703125 
L 7.71875 11.625 
Q 12.109375 9.234375 16.796875 8.0625 
Q 21.484375 6.890625 26.703125 6.890625 
Q 35.15625 6.890625 40.078125 11.328125 
Q 45.015625 15.765625 45.015625 23.390625 
Q 45.015625 31 40.078125 35.4375 
Q 35.15625 39.890625 26.703125 39.890625 
Q 22.75 39.890625 18.8125 39.015625 
Q 14.890625 38.140625 10.796875 36.28125 
z
" id="DejaVuSans-53"/>
       </defs>
       <use xlink:href="#DejaVuSans-53"/>
       <use x="63.623047" xlink:href="#DejaVuSans-48"/>
      </g>
     </g>
    </g>
    <g id="text_7">
     <!-- t -->
     <g transform="translate(220.785156 268.034687)scale(0.1 -0.1)">
      <defs>
       <path d="M 18.3125 70.21875 
L 18.3125 54.6875 
L 36.8125 54.6875 
L 36.8125 47.703125 
L 18.3125 47.703125 
L 18.3125 18.015625 
Q 18.3125 11.328125 20.140625 9.421875 
Q 21.96875 7.515625 27.59375 7.515625 
L 36.8125 7.515625 
L 36.8125 0 
L 27.59375 0 
Q 17.1875 0 13.234375 3.875 
Q 9.28125 7.765625 9.28125 18.015625 
L 9.28125 47.703125 
L 2.6875 47.703125 
L 2.6875 54.6875 
L 9.28125 54.6875 
L 9.28125 70.21875 
z
" id="DejaVuSans-116"/>
      </defs>
      <use xlink:href="#DejaVuSans-116"/>
     </g>
    </g>
   </g>
   <g id="matplotlib.axis_2">
    <g id="ytick_1">
     <g id="line2d_7">
      <defs>
       <path d="M 0 0 
L -3.5 0 
" id="mb4852abe12" style="stroke:#000000;stroke-width:0.8;"/>
      </defs>
      <g>
       <use style="stroke:#000000;stroke-width:0.8;" x="55.345313" xlink:href="#mb4852abe12" y="227.775647"/>
      </g>
     </g>
     <g id="text_8">
      <!-- −400 -->
      <g transform="translate(20.878125 231.574866)scale(0.1 -0.1)">
       <defs>
        <path d="M 10.59375 35.5 
L 73.1875 35.5 
L 73.1875 27.203125 
L 10.59375 27.203125 
z
" id="DejaVuSans-8722"/>
       </defs>
       <use xlink:href="#DejaVuSans-8722"/>
       <use x="83.789062" xlink:href="#DejaVuSans-52"/>
       <use x="147.412109" xlink:href="#DejaVuSans-48"/>
       <use x="211.035156" xlink:href="#DejaVuSans-48"/>
      </g>
     </g>
    </g>
    <g id="ytick_2">
     <g id="line2d_8">
      <g>
       <use style="stroke:#000000;stroke-width:0.8;" x="55.345313" xlink:href="#mb4852abe12" y="180.074699"/>
      </g>
     </g>
     <g id="text_9">
      <!-- −300 -->
      <g transform="translate(20.878125 183.873918)scale(0.1 -0.1)">
       <use xlink:href="#DejaVuSans-8722"/>
       <use x="83.789062" xlink:href="#DejaVuSans-51"/>
       <use x="147.412109" xlink:href="#DejaVuSans-48"/>
       <use x="211.035156" xlink:href="#DejaVuSans-48"/>
      </g>
     </g>
    </g>
    <g id="ytick_3">
     <g id="line2d_9">
      <g>
       <use style="stroke:#000000;stroke-width:0.8;" x="55.345313" xlink:href="#mb4852abe12" y="132.373752"/>
      </g>
     </g>
     <g id="text_10">
      <!-- −200 -->
      <g transform="translate(20.878125 136.17297)scale(0.1 -0.1)">
       <use xlink:href="#DejaVuSans-8722"/>
       <use x="83.789062" xlink:href="#DejaVuSans-50"/>
       <use x="147.412109" xlink:href="#DejaVuSans-48"/>
       <use x="211.035156" xlink:href="#DejaVuSans-48"/>
      </g>
     </g>
    </g>
    <g id="ytick_4">
     <g id="line2d_10">
      <g>
       <use style="stroke:#000000;stroke-width:0.8;" x="55.345313" xlink:href="#mb4852abe12" y="84.672804"/>
      </g>
     </g>
     <g id="text_11">
      <!-- −100 -->
      <g transform="translate(20.878125 88.472023)scale(0.1 -0.1)">
       <use xlink:href="#DejaVuSans-8722"/>
       <use x="83.789062" xlink:href="#DejaVuSans-49"/>
       <use x="147.412109" xlink:href="#DejaVuSans-48"/>
       <use x="211.035156" xlink:href="#DejaVuSans-48"/>
      </g>
     </g>
    </g>
    <g id="ytick_5">
     <g id="line2d_11">
      <g>
       <use style="stroke:#000000;stroke-width:0.8;" x="55.345313" xlink:href="#mb4852abe12" y="36.971856"/>
      </g>
     </g>
     <g id="text_12">
      <!-- 0 -->
      <g transform="translate(41.982813 40.771075)scale(0.1 -0.1)">
       <use xlink:href="#DejaVuSans-48"/>
      </g>
     </g>
    </g>
    <g id="text_13">
     <!-- Reward -->
     <g transform="translate(14.798438 149.659219)rotate(-90)scale(0.1 -0.1)">
      <defs>
       <path d="M 44.390625 34.1875 
Q 47.5625 33.109375 50.5625 29.59375 
Q 53.5625 26.078125 56.59375 19.921875 
L 66.609375 0 
L 56 0 
L 46.6875 18.703125 
Q 43.0625 26.03125 39.671875 28.421875 
Q 36.28125 30.8125 30.421875 30.8125 
L 19.671875 30.8125 
L 19.671875 0 
L 9.8125 0 
L 9.8125 72.90625 
L 32.078125 72.90625 
Q 44.578125 72.90625 50.734375 67.671875 
Q 56.890625 62.453125 56.890625 51.90625 
Q 56.890625 45.015625 53.6875 40.46875 
Q 50.484375 35.9375 44.390625 34.1875 
z
M 19.671875 64.796875 
L 19.671875 38.921875 
L 32.078125 38.921875 
Q 39.203125 38.921875 42.84375 42.21875 
Q 46.484375 45.515625 46.484375 51.90625 
Q 46.484375 58.296875 42.84375 61.546875 
Q 39.203125 64.796875 32.078125 64.796875 
z
" id="DejaVuSans-82"/>
       <path d="M 56.203125 29.59375 
L 56.203125 25.203125 
L 14.890625 25.203125 
Q 15.484375 15.921875 20.484375 11.0625 
Q 25.484375 6.203125 34.421875 6.203125 
Q 39.59375 6.203125 44.453125 7.46875 
Q 49.3125 8.734375 54.109375 11.28125 
L 54.109375 2.78125 
Q 49.265625 0.734375 44.1875 -0.34375 
Q 39.109375 -1.421875 33.890625 -1.421875 
Q 20.796875 -1.421875 13.15625 6.1875 
Q 5.515625 13.8125 5.515625 26.8125 
Q 5.515625 40.234375 12.765625 48.109375 
Q 20.015625 56 32.328125 56 
Q 43.359375 56 49.78125 48.890625 
Q 56.203125 41.796875 56.203125 29.59375 
z
M 47.21875 32.234375 
Q 47.125 39.59375 43.09375 43.984375 
Q 39.0625 48.390625 32.421875 48.390625 
Q 24.90625 48.390625 20.390625 44.140625 
Q 15.875 39.890625 15.1875 32.171875 
z
" id="DejaVuSans-101"/>
       <path d="M 4.203125 54.6875 
L 13.1875 54.6875 
L 24.421875 12.015625 
L 35.59375 54.6875 
L 46.1875 54.6875 
L 57.421875 12.015625 
L 68.609375 54.6875 
L 77.59375 54.6875 
L 63.28125 0 
L 52.6875 0 
L 40.921875 44.828125 
L 29.109375 0 
L 18.5 0 
z
" id="DejaVuSans-119"/>
       <path d="M 34.28125 27.484375 
Q 23.390625 27.484375 19.1875 25 
Q 14.984375 22.515625 14.984375 16.5 
Q 14.984375 11.71875 18.140625 8.90625 
Q 21.296875 6.109375 26.703125 6.109375 
Q 34.1875 6.109375 38.703125 11.40625 
Q 43.21875 16.703125 43.21875 25.484375 
L 43.21875 27.484375 
z
M 52.203125 31.203125 
L 52.203125 0 
L 43.21875 0 
L 43.21875 8.296875 
Q 40.140625 3.328125 35.546875 0.953125 
Q 30.953125 -1.421875 24.3125 -1.421875 
Q 15.921875 -1.421875 10.953125 3.296875 
Q 6 8.015625 6 15.921875 
Q 6 25.140625 12.171875 29.828125 
Q 18.359375 34.515625 30.609375 34.515625 
L 43.21875 34.515625 
L 43.21875 35.40625 
Q 43.21875 41.609375 39.140625 45 
Q 35.0625 48.390625 27.6875 48.390625 
Q 23 48.390625 18.546875 47.265625 
Q 14.109375 46.140625 10.015625 43.890625 
L 10.015625 52.203125 
Q 14.9375 54.109375 19.578125 55.046875 
Q 24.21875 56 28.609375 56 
Q 40.484375 56 46.34375 49.84375 
Q 52.203125 43.703125 52.203125 31.203125 
z
" id="DejaVuSans-97"/>
       <path d="M 41.109375 46.296875 
Q 39.59375 47.171875 37.8125 47.578125 
Q 36.03125 48 33.890625 48 
Q 26.265625 48 22.1875 43.046875 
Q 18.109375 38.09375 18.109375 28.8125 
L 18.109375 0 
L 9.078125 0 
L 9.078125 54.6875 
L 18.109375 54.6875 
L 18.109375 46.1875 
Q 20.953125 51.171875 25.484375 53.578125 
Q 30.03125 56 36.53125 56 
Q 37.453125 56 38.578125 55.875 
Q 39.703125 55.765625 41.0625 55.515625 
z
" id="DejaVuSans-114"/>
       <path d="M 45.40625 46.390625 
L 45.40625 75.984375 
L 54.390625 75.984375 
L 54.390625 0 
L 45.40625 0 
L 45.40625 8.203125 
Q 42.578125 3.328125 38.25 0.953125 
Q 33.9375 -1.421875 27.875 -1.421875 
Q 17.96875 -1.421875 11.734375 6.484375 
Q 5.515625 14.40625 5.515625 27.296875 
Q 5.515625 40.1875 11.734375 48.09375 
Q 17.96875 56 27.875 56 
Q 33.9375 56 38.25 53.625 
Q 42.578125 51.265625 45.40625 46.390625 
z
M 14.796875 27.296875 
Q 14.796875 17.390625 18.875 11.75 
Q 22.953125 6.109375 30.078125 6.109375 
Q 37.203125 6.109375 41.296875 11.75 
Q 45.40625 17.390625 45.40625 27.296875 
Q 45.40625 37.203125 41.296875 42.84375 
Q 37.203125 48.484375 30.078125 48.484375 
Q 22.953125 48.484375 18.875 42.84375 
Q 14.796875 37.203125 14.796875 27.296875 
z
" id="DejaVuSans-100"/>
      </defs>
      <use xlink:href="#DejaVuSans-82"/>
      <use x="64.982422" xlink:href="#DejaVuSans-101"/>
      <use x="126.505859" xlink:href="#DejaVuSans-119"/>
      <use x="208.292969" xlink:href="#DejaVuSans-97"/>
      <use x="269.572266" xlink:href="#DejaVuSans-114"/>
      <use x="308.935547" xlink:href="#DejaVuSans-100"/>
     </g>
    </g>
   </g>
   <g id="line2d_12">
    <path clip-path="url(#pf22e8e0423)" d="M 70.563494 44.604008 
L 76.774997 37.448866 
L 82.9865 35.350024 
L 89.198003 35.63623 
L 95.409505 34.968416 
L 101.621008 34.777613 
L 107.832511 34.586809 
L 114.044014 34.586809 
L 120.255517 35.15922 
L 126.467019 34.586809 
L 132.678522 34.109799 
L 138.890025 34.109799 
L 145.101528 34.300603 
L 151.31303 34.109799 
L 157.524533 34.109799 
L 163.736036 34.109799 
L 169.947539 34.109799 
L 176.159042 34.109799 
L 182.370544 34.109799 
L 188.582047 34.109799 
L 194.79355 34.109799 
L 201.005053 34.109799 
L 207.216556 34.109799 
L 213.428058 34.109799 
L 219.639561 34.491407 
L 225.851064 34.109799 
L 232.062567 34.109799 
L 238.274069 34.109799 
L 244.485572 34.109799 
L 250.697075 34.109799 
L 256.908578 34.109799 
L 263.120081 34.109799 
L 269.331583 34.109799 
L 275.543086 34.109799 
L 281.754589 34.109799 
L 287.966092 34.109799 
L 294.177595 34.109799 
L 300.389097 34.109799 
L 306.6006 34.109799 
L 312.812103 34.109799 
L 319.023606 34.109799 
L 325.235108 34.109799 
L 331.446611 34.109799 
L 337.658114 34.109799 
L 343.869617 34.109799 
L 350.08112 34.109799 
L 356.292622 34.109799 
L 362.504125 34.109799 
L 368.715628 34.109799 
L 374.927131 34.109799 
" style="fill:none;stroke:#1f77b4;stroke-linecap:square;stroke-width:1.5;"/>
   </g>
   <g id="line2d_13">
    <path clip-path="url(#pf22e8e0423)" d="M 70.563494 43.936194 
L 76.774997 36.208641 
L 82.9865 33.728192 
L 89.198003 32.869575 
L 95.409505 32.487967 
L 101.621008 32.392565 
L 107.832511 32.201761 
L 114.044014 32.392565 
L 120.255517 32.392565 
L 126.467019 32.201761 
L 132.678522 32.201761 
L 138.890025 32.201761 
L 145.101528 32.201761 
L 151.31303 32.201761 
L 157.524533 32.201761 
L 163.736036 32.201761 
L 169.947539 32.201761 
L 176.159042 32.201761 
L 182.370544 32.392565 
L 188.582047 32.201761 
L 194.79355 32.201761 
L 201.005053 32.201761 
L 207.216556 32.201761 
L 213.428058 32.201761 
L 219.639561 32.201761 
L 225.851064 32.201761 
L 232.062567 32.201761 
L 238.274069 32.201761 
L 244.485572 32.201761 
L 250.697075 32.201761 
L 256.908578 32.201761 
L 263.120081 32.201761 
L 269.331583 32.201761 
L 275.543086 32.201761 
L 281.754589 32.201761 
L 287.966092 32.201761 
L 294.177595 32.201761 
L 300.389097 32.201761 
L 306.6006 32.201761 
L 312.812103 32.201761 
L 319.023606 32.201761 
L 325.235108 32.201761 
L 331.446611 32.201761 
L 337.658114 32.201761 
L 343.869617 32.201761 
L 350.08112 32.201761 
L 356.292622 32.201761 
L 362.504125 32.201761 
L 368.715628 32.201761 
L 374.927131 32.201761 
" style="fill:none;stroke:#ff7f0e;stroke-linecap:square;stroke-width:1.5;"/>
   </g>
   <g id="line2d_14">
    <path clip-path="url(#pf22e8e0423)" d="M 70.563494 45.939634 
L 76.774997 34.491407 
L 82.9865 34.777613 
L 89.198003 33.63279 
L 95.409505 33.918995 
L 101.621008 33.537388 
L 107.832511 33.537388 
L 114.044014 33.15578 
L 120.255517 32.678771 
L 126.467019 32.678771 
L 132.678522 33.15578 
L 138.890025 32.678771 
L 145.101528 32.774173 
L 151.31303 32.774173 
L 157.524533 32.774173 
L 163.736036 33.251182 
L 169.947539 32.678771 
L 176.159042 32.678771 
L 182.370544 32.678771 
L 188.582047 32.869575 
L 194.79355 32.869575 
L 201.005053 32.678771 
L 207.216556 32.678771 
L 213.428058 32.678771 
L 219.639561 32.678771 
L 225.851064 32.678771 
L 232.062567 32.678771 
L 238.274069 32.678771 
L 244.485572 32.678771 
L 250.697075 32.678771 
L 256.908578 32.678771 
L 263.120081 32.678771 
L 269.331583 32.678771 
L 275.543086 32.678771 
L 281.754589 32.392565 
L 287.966092 32.201761 
L 294.177595 32.201761 
L 300.389097 32.392565 
L 306.6006 32.201761 
L 312.812103 32.201761 
L 319.023606 32.201761 
L 325.235108 32.201761 
L 331.446611 32.201761 
L 337.658114 32.201761 
L 343.869617 32.201761 
L 350.08112 32.201761 
L 356.292622 32.201761 
L 362.504125 32.201761 
L 368.715628 32.201761 
L 374.927131 32.201761 
" style="fill:none;stroke:#2ca02c;stroke-linecap:square;stroke-width:1.5;"/>
   </g>
   <g id="line2d_15">
    <path clip-path="url(#pf22e8e0423)" d="M 70.563494 50.709729 
L 76.774997 37.067258 
L 82.9865 34.396005 
L 89.198003 33.63279 
L 95.409505 32.964977 
L 101.621008 32.774173 
L 107.832511 32.678771 
L 114.044014 33.15578 
L 120.255517 32.678771 
L 126.467019 33.251182 
L 132.678522 32.678771 
L 138.890025 32.678771 
L 145.101528 32.774173 
L 151.31303 32.678771 
L 157.524533 32.678771 
L 163.736036 32.678771 
L 169.947539 32.678771 
L 176.159042 32.678771 
L 182.370544 32.678771 
L 188.582047 32.678771 
L 194.79355 32.869575 
L 201.005053 32.678771 
L 207.216556 32.678771 
L 213.428058 33.060378 
L 219.639561 32.678771 
L 225.851064 33.537388 
L 232.062567 32.774173 
L 238.274069 33.15578 
L 244.485572 32.678771 
L 250.697075 32.774173 
L 256.908578 32.678771 
L 263.120081 32.774173 
L 269.331583 32.964977 
L 275.543086 32.678771 
L 281.754589 32.774173 
L 287.966092 32.678771 
L 294.177595 32.201761 
L 300.389097 32.201761 
L 306.6006 32.201761 
L 312.812103 32.201761 
L 319.023606 32.201761 
L 325.235108 32.297163 
L 331.446611 32.201761 
L 337.658114 32.201761 
L 343.869617 32.201761 
L 350.08112 32.487967 
L 356.292622 32.297163 
L 362.504125 32.392565 
L 368.715628 32.201761 
L 374.927131 32.201761 
" style="fill:none;stroke:#d62728;stroke-linecap:square;stroke-width:1.5;"/>
   </g>
   <g id="line2d_16">
    <path clip-path="url(#pf22e8e0423)" d="M 70.563494 48.610887 
L 76.774997 36.113239 
L 82.9865 36.113239 
L 89.198003 33.251182 
L 95.409505 33.537388 
L 101.621008 33.346584 
L 107.832511 33.060378 
L 114.044014 33.441986 
L 120.255517 33.441986 
L 126.467019 32.583369 
L 132.678522 32.678771 
L 138.890025 32.583369 
L 145.101528 33.537388 
L 151.31303 33.346584 
L 157.524533 34.300603 
L 163.736036 32.201761 
L 169.947539 32.297163 
L 176.159042 32.678771 
L 182.370544 32.869575 
L 188.582047 32.774173 
L 194.79355 33.728192 
L 201.005053 32.487967 
L 207.216556 32.297163 
L 213.428058 34.491407 
L 219.639561 32.201761 
L 225.851064 34.205201 
L 232.062567 32.201761 
L 238.274069 32.392565 
L 244.485572 32.869575 
L 250.697075 32.392565 
L 256.908578 32.392565 
L 263.120081 32.201761 
L 269.331583 33.251182 
L 275.543086 33.537388 
L 281.754589 34.682211 
L 287.966092 32.869575 
L 294.177595 32.678771 
L 300.389097 32.487967 
L 306.6006 33.918995 
L 312.812103 32.201761 
L 319.023606 32.201761 
L 325.235108 32.487967 
L 331.446611 32.774173 
L 337.658114 32.774173 
L 343.869617 32.392565 
L 350.08112 32.392565 
L 356.292622 32.201761 
L 362.504125 32.201761 
L 368.715628 32.678771 
L 374.927131 32.869575 
" style="fill:none;stroke:#9467bd;stroke-linecap:square;stroke-width:1.5;"/>
   </g>
   <g id="line2d_17">
    <path clip-path="url(#pf22e8e0423)" d="M 70.563494 54.716609 
L 76.774997 51.472944 
L 82.9865 42.69597 
L 89.198003 38.68909 
L 95.409505 40.406324 
L 101.621008 42.982176 
L 107.832511 38.498286 
L 114.044014 37.16266 
L 120.255517 40.501726 
L 126.467019 41.360343 
L 132.678522 37.925875 
L 138.890025 38.402885 
L 145.101528 39.929315 
L 151.31303 35.063818 
L 157.524533 42.505166 
L 163.736036 37.544268 
L 169.947539 36.494847 
L 176.159042 39.452305 
L 182.370544 37.258062 
L 188.582047 36.781052 
L 194.79355 36.017837 
L 201.005053 38.212081 
L 207.216556 35.15922 
L 213.428058 40.501726 
L 219.639561 37.544268 
L 225.851064 40.310922 
L 232.062567 36.590249 
L 238.274069 35.15922 
L 244.485572 36.590249 
L 250.697075 36.113239 
L 256.908578 35.15922 
L 263.120081 36.113239 
L 269.331583 36.017837 
L 275.543086 38.307483 
L 281.754589 41.741951 
L 287.966092 34.682211 
L 294.177595 36.304043 
L 300.389097 42.028157 
L 306.6006 35.063818 
L 312.812103 36.494847 
L 319.023606 35.063818 
L 325.235108 39.929315 
L 331.446611 39.738511 
L 337.658114 37.925875 
L 343.869617 35.254622 
L 350.08112 38.212081 
L 356.292622 38.116679 
L 362.504125 37.925875 
L 368.715628 37.448866 
L 374.927131 38.307483 
" style="fill:none;stroke:#8c564b;stroke-linecap:square;stroke-width:1.5;"/>
   </g>
   <g id="line2d_18">
    <path clip-path="url(#pf22e8e0423)" d="M 70.563494 102.226753 
L 76.774997 111.289933 
L 82.9865 181.791933 
L 89.198003 99.173892 
L 95.409505 204.879192 
L 101.621008 161.375928 
L 107.832511 106.519838 
L 114.044014 207.836651 
L 120.255517 122.73816 
L 126.467019 164.619592 
L 132.678522 115.20141 
L 138.890025 173.682772 
L 145.101528 160.517311 
L 151.31303 146.779438 
L 157.524533 176.258623 
L 163.736036 147.733457 
L 169.947539 216.613625 
L 176.159042 171.679332 
L 182.370544 119.494496 
L 188.582047 145.730017 
L 194.79355 131.038125 
L 201.005053 132.755359 
L 207.216556 143.917381 
L 213.428058 92.686563 
L 219.639561 130.751919 
L 225.851064 159.754096 
L 232.062567 182.078139 
L 238.274069 138.384071 
L 244.485572 101.368136 
L 250.697075 201.444724 
L 256.908578 147.447251 
L 263.120081 179.59769 
L 269.331583 229.874489 
L 275.543086 133.709378 
L 281.754589 113.102569 
L 287.966092 165.478209 
L 294.177595 133.518574 
L 300.389097 147.638055 
L 306.6006 111.67154 
L 312.812103 101.749743 
L 319.023606 120.257711 
L 325.235108 155.46101 
L 331.446611 136.571435 
L 337.658114 152.503551 
L 343.869617 138.288669 
L 350.08112 106.901445 
L 356.292622 107.664661 
L 362.504125 195.339003 
L 368.715628 166.813836 
L 374.927131 154.220786 
" style="fill:none;stroke:#e377c2;stroke-linecap:square;stroke-width:1.5;"/>
   </g>
   <g id="line2d_19">
    <path clip-path="url(#pf22e8e0423)" d="M 70.563494 129.988704 
L 76.774997 38.879894 
L 82.9865 33.728192 
L 89.198003 32.774173 
L 95.409505 32.487967 
L 101.621008 32.201761 
L 107.832511 32.201761 
L 114.044014 32.201761 
L 120.255517 32.201761 
L 126.467019 32.201761 
L 132.678522 32.201761 
L 138.890025 32.201761 
L 145.101528 32.201761 
L 151.31303 32.201761 
L 157.524533 32.487967 
L 163.736036 32.201761 
L 169.947539 32.201761 
L 176.159042 32.201761 
L 182.370544 32.201761 
L 188.582047 32.201761 
L 194.79355 32.201761 
L 201.005053 32.201761 
L 207.216556 32.201761 
L 213.428058 32.201761 
L 219.639561 32.201761 
L 225.851064 32.201761 
L 232.062567 32.201761 
L 238.274069 32.201761 
L 244.485572 32.201761 
L 250.697075 32.201761 
L 256.908578 32.201761 
L 263.120081 32.201761 
L 269.331583 32.201761 
L 275.543086 32.201761 
L 281.754589 32.201761 
L 287.966092 32.201761 
L 294.177595 32.201761 
L 300.389097 32.201761 
L 306.6006 32.201761 
L 312.812103 32.201761 
L 319.023606 32.201761 
L 325.235108 32.201761 
L 331.446611 32.201761 
L 337.658114 32.201761 
L 343.869617 32.201761 
L 350.08112 32.201761 
L 356.292622 32.201761 
L 362.504125 32.201761 
L 368.715628 32.201761 
L 374.927131 32.201761 
" style="fill:none;stroke:#7f7f7f;stroke-linecap:square;stroke-width:1.5;"/>
   </g>
   <g id="line2d_20">
    <path clip-path="url(#pf22e8e0423)" d="M 70.563494 112.434755 
L 76.774997 118.826682 
L 82.9865 76.849848 
L 89.198003 77.326858 
L 95.409505 61.203938 
L 101.621008 66.069434 
L 107.832511 64.065994 
L 114.044014 54.144197 
L 120.255517 44.031596 
L 126.467019 36.590249 
L 132.678522 43.649989 
L 138.890025 39.356904 
L 145.101528 33.823594 
L 151.31303 35.063818 
L 157.524533 34.873014 
L 163.736036 32.964977 
L 169.947539 34.014397 
L 176.159042 33.060378 
L 182.370544 33.63279 
L 188.582047 33.346584 
L 194.79355 32.583369 
L 201.005053 32.487967 
L 207.216556 33.15578 
L 213.428058 32.297163 
L 219.639561 32.869575 
L 225.851064 33.15578 
L 232.062567 32.201761 
L 238.274069 32.201761 
L 244.485572 32.201761 
L 250.697075 32.201761 
L 256.908578 32.201761 
L 263.120081 32.201761 
L 269.331583 32.201761 
L 275.543086 32.392565 
L 281.754589 32.201761 
L 287.966092 32.201761 
L 294.177595 32.297163 
L 300.389097 32.201761 
L 306.6006 32.201761 
L 312.812103 32.297163 
L 319.023606 32.201761 
L 325.235108 32.201761 
L 331.446611 32.201761 
L 337.658114 32.201761 
L 343.869617 32.201761 
L 350.08112 32.201761 
L 356.292622 32.201761 
L 362.504125 32.201761 
L 368.715628 32.201761 
L 374.927131 32.201761 
" style="fill:none;stroke:#bcbd22;stroke-linecap:square;stroke-width:1.5;"/>
   </g>
   <g id="line2d_21">
    <path clip-path="url(#pf22e8e0423)" d="M 70.563494 151.263327 
L 76.774997 115.106008 
L 82.9865 74.464801 
L 89.198003 43.649989 
L 95.409505 38.498286 
L 101.621008 36.494847 
L 107.832511 35.063818 
L 114.044014 33.251182 
L 120.255517 34.300603 
L 126.467019 32.678771 
L 132.678522 34.491407 
L 138.890025 32.297163 
L 145.101528 32.201761 
L 151.31303 32.774173 
L 157.524533 32.201761 
L 163.736036 32.297163 
L 169.947539 33.251182 
L 176.159042 32.201761 
L 182.370544 32.583369 
L 188.582047 32.201761 
L 194.79355 32.392565 
L 201.005053 32.201761 
L 207.216556 32.201761 
L 213.428058 32.297163 
L 219.639561 32.201761 
L 225.851064 32.201761 
L 232.062567 32.201761 
L 238.274069 32.201761 
L 244.485572 32.201761 
L 250.697075 32.392565 
L 256.908578 32.201761 
L 263.120081 32.201761 
L 269.331583 32.201761 
L 275.543086 32.201761 
L 281.754589 32.201761 
L 287.966092 32.201761 
L 294.177595 32.201761 
L 300.389097 32.201761 
L 306.6006 32.201761 
L 312.812103 32.201761 
L 319.023606 32.201761 
L 325.235108 32.201761 
L 331.446611 32.201761 
L 337.658114 32.201761 
L 343.869617 32.201761 
L 350.08112 32.201761 
L 356.292622 32.201761 
L 362.504125 32.201761 
L 368.715628 32.201761 
L 374.927131 32.201761 
" style="fill:none;stroke:#17becf;stroke-linecap:square;stroke-width:1.5;"/>
   </g>
   <g id="patch_3">
    <path d="M 55.345313 239.758125 
L 55.345313 22.318125 
" style="fill:none;stroke:#000000;stroke-linecap:square;stroke-linejoin:miter;stroke-width:0.8;"/>
   </g>
   <g id="patch_4">
    <path d="M 390.145312 239.758125 
L 390.145312 22.318125 
" style="fill:none;stroke:#000000;stroke-linecap:square;stroke-linejoin:miter;stroke-width:0.8;"/>
   </g>
   <g id="patch_5">
    <path d="M 55.345313 239.758125 
L 390.145312 239.758125 
" style="fill:none;stroke:#000000;stroke-linecap:square;stroke-linejoin:miter;stroke-width:0.8;"/>
   </g>
   <g id="patch_6">
    <path d="M 55.345313 22.318125 
L 390.145312 22.318125 
" style="fill:none;stroke:#000000;stroke-linecap:square;stroke-linejoin:miter;stroke-width:0.8;"/>
   </g>
   <g id="text_14">
    <!-- Average reward -->
    <g transform="translate(175.42125 16.318125)scale(0.12 -0.12)">
     <defs>
      <path d="M 34.1875 63.1875 
L 20.796875 26.90625 
L 47.609375 26.90625 
z
M 28.609375 72.90625 
L 39.796875 72.90625 
L 67.578125 0 
L 57.328125 0 
L 50.6875 18.703125 
L 17.828125 18.703125 
L 11.1875 0 
L 0.78125 0 
z
" id="DejaVuSans-65"/>
      <path d="M 2.984375 54.6875 
L 12.5 54.6875 
L 29.59375 8.796875 
L 46.6875 54.6875 
L 56.203125 54.6875 
L 35.6875 0 
L 23.484375 0 
z
" id="DejaVuSans-118"/>
      <path d="M 45.40625 27.984375 
Q 45.40625 37.75 41.375 43.109375 
Q 37.359375 48.484375 30.078125 48.484375 
Q 22.859375 48.484375 18.828125 43.109375 
Q 14.796875 37.75 14.796875 27.984375 
Q 14.796875 18.265625 18.828125 12.890625 
Q 22.859375 7.515625 30.078125 7.515625 
Q 37.359375 7.515625 41.375 12.890625 
Q 45.40625 18.265625 45.40625 27.984375 
z
M 54.390625 6.78125 
Q 54.390625 -7.171875 48.1875 -13.984375 
Q 42 -20.796875 29.203125 -20.796875 
Q 24.46875 -20.796875 20.265625 -20.09375 
Q 16.0625 -19.390625 12.109375 -17.921875 
L 12.109375 -9.1875 
Q 16.0625 -11.328125 19.921875 -12.34375 
Q 23.78125 -13.375 27.78125 -13.375 
Q 36.625 -13.375 41.015625 -8.765625 
Q 45.40625 -4.15625 45.40625 5.171875 
L 45.40625 9.625 
Q 42.625 4.78125 38.28125 2.390625 
Q 33.9375 0 27.875 0 
Q 17.828125 0 11.671875 7.65625 
Q 5.515625 15.328125 5.515625 27.984375 
Q 5.515625 40.671875 11.671875 48.328125 
Q 17.828125 56 27.875 56 
Q 33.9375 56 38.28125 53.609375 
Q 42.625 51.21875 45.40625 46.390625 
L 45.40625 54.6875 
L 54.390625 54.6875 
z
" id="DejaVuSans-103"/>
      <path id="DejaVuSans-32"/>
     </defs>
     <use xlink:href="#DejaVuSans-65"/>
     <use x="62.533203" xlink:href="#DejaVuSans-118"/>
     <use x="121.712891" xlink:href="#DejaVuSans-101"/>
     <use x="183.236328" xlink:href="#DejaVuSans-114"/>
     <use x="224.349609" xlink:href="#DejaVuSans-97"/>
     <use x="285.628906" xlink:href="#DejaVuSans-103"/>
     <use x="349.105469" xlink:href="#DejaVuSans-101"/>
     <use x="410.628906" xlink:href="#DejaVuSans-32"/>
     <use x="442.416016" xlink:href="#DejaVuSans-114"/>
     <use x="481.279297" xlink:href="#DejaVuSans-101"/>
     <use x="542.802734" xlink:href="#DejaVuSans-119"/>
     <use x="624.589844" xlink:href="#DejaVuSans-97"/>
     <use x="685.869141" xlink:href="#DejaVuSans-114"/>
     <use x="725.232422" xlink:href="#DejaVuSans-100"/>
    </g>
   </g>
   <g id="legend_1">
    <g id="patch_7">
     <path d="M 287.8125 234.758125 
L 383.145312 234.758125 
Q 385.145312 234.758125 385.145312 232.758125 
L 385.145312 86.69875 
Q 385.145312 84.69875 383.145312 84.69875 
L 287.8125 84.69875 
Q 285.8125 84.69875 285.8125 86.69875 
L 285.8125 232.758125 
Q 285.8125 234.758125 287.8125 234.758125 
z
" style="fill:#ffffff;opacity:0.8;stroke:#cccccc;stroke-linejoin:miter;"/>
    </g>
    <g id="line2d_22">
     <path d="M 289.8125 92.797187 
L 309.8125 92.797187 
" style="fill:none;stroke:#1f77b4;stroke-linecap:square;stroke-width:1.5;"/>
    </g>
    <g id="line2d_23"/>
    <g id="text_15">
     <!-- 0 -->
     <g transform="translate(317.8125 96.297187)scale(0.1 -0.1)">
      <use xlink:href="#DejaVuSans-48"/>
     </g>
    </g>
    <g id="line2d_24">
     <path d="M 289.8125 107.475313 
L 309.8125 107.475313 
" style="fill:none;stroke:#ff7f0e;stroke-linecap:square;stroke-width:1.5;"/>
    </g>
    <g id="line2d_25"/>
    <g id="text_16">
     <!-- 0.1 -->
     <g transform="translate(317.8125 110.975313)scale(0.1 -0.1)">
      <defs>
       <path d="M 10.6875 12.40625 
L 21 12.40625 
L 21 0 
L 10.6875 0 
z
" id="DejaVuSans-46"/>
      </defs>
      <use xlink:href="#DejaVuSans-48"/>
      <use x="63.623047" xlink:href="#DejaVuSans-46"/>
      <use x="95.410156" xlink:href="#DejaVuSans-49"/>
     </g>
    </g>
    <g id="line2d_26">
     <path d="M 289.8125 122.153437 
L 309.8125 122.153437 
" style="fill:none;stroke:#2ca02c;stroke-linecap:square;stroke-width:1.5;"/>
    </g>
    <g id="line2d_27"/>
    <g id="text_17">
     <!-- 0.25 -->
     <g transform="translate(317.8125 125.653437)scale(0.1 -0.1)">
      <use xlink:href="#DejaVuSans-48"/>
      <use x="63.623047" xlink:href="#DejaVuSans-46"/>
      <use x="95.410156" xlink:href="#DejaVuSans-50"/>
      <use x="159.033203" xlink:href="#DejaVuSans-53"/>
     </g>
    </g>
    <g id="line2d_28">
     <path d="M 289.8125 136.831562 
L 309.8125 136.831562 
" style="fill:none;stroke:#d62728;stroke-linecap:square;stroke-width:1.5;"/>
    </g>
    <g id="line2d_29"/>
    <g id="text_18">
     <!-- 0.5 -->
     <g transform="translate(317.8125 140.331562)scale(0.1 -0.1)">
      <use xlink:href="#DejaVuSans-48"/>
      <use x="63.623047" xlink:href="#DejaVuSans-46"/>
      <use x="95.410156" xlink:href="#DejaVuSans-53"/>
     </g>
    </g>
    <g id="line2d_30">
     <path d="M 289.8125 151.509687 
L 309.8125 151.509687 
" style="fill:none;stroke:#9467bd;stroke-linecap:square;stroke-width:1.5;"/>
    </g>
    <g id="line2d_31"/>
    <g id="text_19">
     <!-- 0.75 -->
     <g transform="translate(317.8125 155.009687)scale(0.1 -0.1)">
      <defs>
       <path d="M 8.203125 72.90625 
L 55.078125 72.90625 
L 55.078125 68.703125 
L 28.609375 0 
L 18.3125 0 
L 43.21875 64.59375 
L 8.203125 64.59375 
z
" id="DejaVuSans-55"/>
      </defs>
      <use xlink:href="#DejaVuSans-48"/>
      <use x="63.623047" xlink:href="#DejaVuSans-46"/>
      <use x="95.410156" xlink:href="#DejaVuSans-55"/>
      <use x="159.033203" xlink:href="#DejaVuSans-53"/>
     </g>
    </g>
    <g id="line2d_32">
     <path d="M 289.8125 166.187813 
L 309.8125 166.187813 
" style="fill:none;stroke:#8c564b;stroke-linecap:square;stroke-width:1.5;"/>
    </g>
    <g id="line2d_33"/>
    <g id="text_20">
     <!-- 0.9 -->
     <g transform="translate(317.8125 169.687813)scale(0.1 -0.1)">
      <defs>
       <path d="M 10.984375 1.515625 
L 10.984375 10.5 
Q 14.703125 8.734375 18.5 7.8125 
Q 22.3125 6.890625 25.984375 6.890625 
Q 35.75 6.890625 40.890625 13.453125 
Q 46.046875 20.015625 46.78125 33.40625 
Q 43.953125 29.203125 39.59375 26.953125 
Q 35.25 24.703125 29.984375 24.703125 
Q 19.046875 24.703125 12.671875 31.3125 
Q 6.296875 37.9375 6.296875 49.421875 
Q 6.296875 60.640625 12.9375 67.421875 
Q 19.578125 74.21875 30.609375 74.21875 
Q 43.265625 74.21875 49.921875 64.515625 
Q 56.59375 54.828125 56.59375 36.375 
Q 56.59375 19.140625 48.40625 8.859375 
Q 40.234375 -1.421875 26.421875 -1.421875 
Q 22.703125 -1.421875 18.890625 -0.6875 
Q 15.09375 0.046875 10.984375 1.515625 
z
M 30.609375 32.421875 
Q 37.25 32.421875 41.125 36.953125 
Q 45.015625 41.5 45.015625 49.421875 
Q 45.015625 57.28125 41.125 61.84375 
Q 37.25 66.40625 30.609375 66.40625 
Q 23.96875 66.40625 20.09375 61.84375 
Q 16.21875 57.28125 16.21875 49.421875 
Q 16.21875 41.5 20.09375 36.953125 
Q 23.96875 32.421875 30.609375 32.421875 
z
" id="DejaVuSans-57"/>
      </defs>
      <use xlink:href="#DejaVuSans-48"/>
      <use x="63.623047" xlink:href="#DejaVuSans-46"/>
      <use x="95.410156" xlink:href="#DejaVuSans-57"/>
     </g>
    </g>
    <g id="line2d_34">
     <path d="M 289.8125 180.865937 
L 309.8125 180.865937 
" style="fill:none;stroke:#e377c2;stroke-linecap:square;stroke-width:1.5;"/>
    </g>
    <g id="line2d_35"/>
    <g id="text_21">
     <!-- 1 -->
     <g transform="translate(317.8125 184.365937)scale(0.1 -0.1)">
      <use xlink:href="#DejaVuSans-49"/>
     </g>
    </g>
    <g id="line2d_36">
     <path d="M 289.8125 195.544062 
L 309.8125 195.544062 
" style="fill:none;stroke:#7f7f7f;stroke-linecap:square;stroke-width:1.5;"/>
    </g>
    <g id="line2d_37"/>
    <g id="text_22">
     <!-- exp -->
     <g transform="translate(317.8125 199.044062)scale(0.1 -0.1)">
      <defs>
       <path d="M 54.890625 54.6875 
L 35.109375 28.078125 
L 55.90625 0 
L 45.3125 0 
L 29.390625 21.484375 
L 13.484375 0 
L 2.875 0 
L 24.125 28.609375 
L 4.6875 54.6875 
L 15.28125 54.6875 
L 29.78125 35.203125 
L 44.28125 54.6875 
z
" id="DejaVuSans-120"/>
       <path d="M 18.109375 8.203125 
L 18.109375 -20.796875 
L 9.078125 -20.796875 
L 9.078125 54.6875 
L 18.109375 54.6875 
L 18.109375 46.390625 
Q 20.953125 51.265625 25.265625 53.625 
Q 29.59375 56 35.59375 56 
Q 45.5625 56 51.78125 48.09375 
Q 58.015625 40.1875 58.015625 27.296875 
Q 58.015625 14.40625 51.78125 6.484375 
Q 45.5625 -1.421875 35.59375 -1.421875 
Q 29.59375 -1.421875 25.265625 0.953125 
Q 20.953125 3.328125 18.109375 8.203125 
z
M 48.6875 27.296875 
Q 48.6875 37.203125 44.609375 42.84375 
Q 40.53125 48.484375 33.40625 48.484375 
Q 26.265625 48.484375 22.1875 42.84375 
Q 18.109375 37.203125 18.109375 27.296875 
Q 18.109375 17.390625 22.1875 11.75 
Q 26.265625 6.109375 33.40625 6.109375 
Q 40.53125 6.109375 44.609375 11.75 
Q 48.6875 17.390625 48.6875 27.296875 
z
" id="DejaVuSans-112"/>
      </defs>
      <use xlink:href="#DejaVuSans-101"/>
      <use x="59.773438" xlink:href="#DejaVuSans-120"/>
      <use x="118.953125" xlink:href="#DejaVuSans-112"/>
     </g>
    </g>
    <g id="line2d_38">
     <path d="M 289.8125 210.222187 
L 309.8125 210.222187 
" style="fill:none;stroke:#bcbd22;stroke-linecap:square;stroke-width:1.5;"/>
    </g>
    <g id="line2d_39"/>
    <g id="text_23">
     <!-- log -->
     <g transform="translate(317.8125 213.722187)scale(0.1 -0.1)">
      <defs>
       <path d="M 9.421875 75.984375 
L 18.40625 75.984375 
L 18.40625 0 
L 9.421875 0 
z
" id="DejaVuSans-108"/>
       <path d="M 30.609375 48.390625 
Q 23.390625 48.390625 19.1875 42.75 
Q 14.984375 37.109375 14.984375 27.296875 
Q 14.984375 17.484375 19.15625 11.84375 
Q 23.34375 6.203125 30.609375 6.203125 
Q 37.796875 6.203125 41.984375 11.859375 
Q 46.1875 17.53125 46.1875 27.296875 
Q 46.1875 37.015625 41.984375 42.703125 
Q 37.796875 48.390625 30.609375 48.390625 
z
M 30.609375 56 
Q 42.328125 56 49.015625 48.375 
Q 55.71875 40.765625 55.71875 27.296875 
Q 55.71875 13.875 49.015625 6.21875 
Q 42.328125 -1.421875 30.609375 -1.421875 
Q 18.84375 -1.421875 12.171875 6.21875 
Q 5.515625 13.875 5.515625 27.296875 
Q 5.515625 40.765625 12.171875 48.375 
Q 18.84375 56 30.609375 56 
z
" id="DejaVuSans-111"/>
      </defs>
      <use xlink:href="#DejaVuSans-108"/>
      <use x="27.783203" xlink:href="#DejaVuSans-111"/>
      <use x="88.964844" xlink:href="#DejaVuSans-103"/>
     </g>
    </g>
    <g id="line2d_40">
     <path d="M 289.8125 224.900312 
L 309.8125 224.900312 
" style="fill:none;stroke:#17becf;stroke-linecap:square;stroke-width:1.5;"/>
    </g>
    <g id="line2d_41"/>
    <g id="text_24">
     <!-- linear_decay -->
     <g transform="translate(317.8125 228.400312)scale(0.1 -0.1)">
      <defs>
       <path d="M 9.421875 54.6875 
L 18.40625 54.6875 
L 18.40625 0 
L 9.421875 0 
z
M 9.421875 75.984375 
L 18.40625 75.984375 
L 18.40625 64.59375 
L 9.421875 64.59375 
z
" id="DejaVuSans-105"/>
       <path d="M 54.890625 33.015625 
L 54.890625 0 
L 45.90625 0 
L 45.90625 32.71875 
Q 45.90625 40.484375 42.875 44.328125 
Q 39.84375 48.1875 33.796875 48.1875 
Q 26.515625 48.1875 22.3125 43.546875 
Q 18.109375 38.921875 18.109375 30.90625 
L 18.109375 0 
L 9.078125 0 
L 9.078125 54.6875 
L 18.109375 54.6875 
L 18.109375 46.1875 
Q 21.34375 51.125 25.703125 53.5625 
Q 30.078125 56 35.796875 56 
Q 45.21875 56 50.046875 50.171875 
Q 54.890625 44.34375 54.890625 33.015625 
z
" id="DejaVuSans-110"/>
       <path d="M 50.984375 -16.609375 
L 50.984375 -23.578125 
L -0.984375 -23.578125 
L -0.984375 -16.609375 
z
" id="DejaVuSans-95"/>
       <path d="M 48.78125 52.59375 
L 48.78125 44.1875 
Q 44.96875 46.296875 41.140625 47.34375 
Q 37.3125 48.390625 33.40625 48.390625 
Q 24.65625 48.390625 19.8125 42.84375 
Q 14.984375 37.3125 14.984375 27.296875 
Q 14.984375 17.28125 19.8125 11.734375 
Q 24.65625 6.203125 33.40625 6.203125 
Q 37.3125 6.203125 41.140625 7.25 
Q 44.96875 8.296875 48.78125 10.40625 
L 48.78125 2.09375 
Q 45.015625 0.34375 40.984375 -0.53125 
Q 36.96875 -1.421875 32.421875 -1.421875 
Q 20.0625 -1.421875 12.78125 6.34375 
Q 5.515625 14.109375 5.515625 27.296875 
Q 5.515625 40.671875 12.859375 48.328125 
Q 20.21875 56 33.015625 56 
Q 37.15625 56 41.109375 55.140625 
Q 45.0625 54.296875 48.78125 52.59375 
z
" id="DejaVuSans-99"/>
       <path d="M 32.171875 -5.078125 
Q 28.375 -14.84375 24.75 -17.8125 
Q 21.140625 -20.796875 15.09375 -20.796875 
L 7.90625 -20.796875 
L 7.90625 -13.28125 
L 13.1875 -13.28125 
Q 16.890625 -13.28125 18.9375 -11.515625 
Q 21 -9.765625 23.484375 -3.21875 
L 25.09375 0.875 
L 2.984375 54.6875 
L 12.5 54.6875 
L 29.59375 11.921875 
L 46.6875 54.6875 
L 56.203125 54.6875 
z
" id="DejaVuSans-121"/>
      </defs>
      <use xlink:href="#DejaVuSans-108"/>
      <use x="27.783203" xlink:href="#DejaVuSans-105"/>
      <use x="55.566406" xlink:href="#DejaVuSans-110"/>
      <use x="118.945312" xlink:href="#DejaVuSans-101"/>
      <use x="180.46875" xlink:href="#DejaVuSans-97"/>
      <use x="241.748047" xlink:href="#DejaVuSans-114"/>
      <use x="282.861328" xlink:href="#DejaVuSans-95"/>
      <use x="332.861328" xlink:href="#DejaVuSans-100"/>
      <use x="396.337891" xlink:href="#DejaVuSans-101"/>
      <use x="457.861328" xlink:href="#DejaVuSans-99"/>
      <use x="512.841797" xlink:href="#DejaVuSans-97"/>
      <use x="574.121094" xlink:href="#DejaVuSans-121"/>
     </g>
    </g>
   </g>
  </g>
 </g>
 <defs>
  <clipPath id="pf22e8e0423">
   <rect height="217.44" width="334.8" x="55.345313" y="22.318125"/>
  </clipPath>
 </defs>
</svg>
