<?xml version="1.0" encoding="utf-8" standalone="no"?>
<!DOCTYPE svg PUBLIC "-//W3C//DTD SVG 1.1//EN"
  "http://www.w3.org/Graphics/SVG/1.1/DTD/svg11.dtd">
<!-- Created with matplotlib (https://matplotlib.org/) -->
<svg height="248.518125pt" version="1.1" viewBox="0 0 381.65 248.518125" width="381.65pt" xmlns="http://www.w3.org/2000/svg" xmlns:xlink="http://www.w3.org/1999/xlink">
 <metadata>
  <rdf:RDF xmlns:cc="http://creativecommons.org/ns#" xmlns:dc="http://purl.org/dc/elements/1.1/" xmlns:rdf="http://www.w3.org/1999/02/22-rdf-syntax-ns#">
   <cc:Work>
    <dc:type rdf:resource="http://purl.org/dc/dcmitype/StillImage"/>
    <dc:date>2021-02-16T23:20:04.514627</dc:date>
    <dc:format>image/svg+xml</dc:format>
    <dc:creator>
     <cc:Agent>
      <dc:title>Matplotlib v3.3.2, https://matplotlib.org/</dc:title>
     </cc:Agent>
    </dc:creator>
   </cc:Work>
  </rdf:RDF>
 </metadata>
 <defs>
  <style type="text/css">*{stroke-linecap:butt;stroke-linejoin:round;}</style>
 </defs>
 <g id="figure_1">
  <g id="patch_1">
   <path d="M -0 248.518125 
L 381.65 248.518125 
L 381.65 0 
L -0 0 
z
" style="fill:none;"/>
  </g>
  <g id="axes_1">
   <g id="patch_2">
    <path d="M 39.65 224.64 
L 374.45 224.64 
L 374.45 7.2 
L 39.65 7.2 
z
" style="fill:#ffffff;"/>
   </g>
   <g id="matplotlib.axis_1">
    <g id="xtick_1">
     <g id="line2d_1">
      <defs>
       <path d="M 0 0 
L 0 3.5 
" id="mc021a565f7" style="stroke:#000000;stroke-width:0.8;"/>
      </defs>
      <g>
       <use style="stroke:#000000;stroke-width:0.8;" x="54.868182" xlink:href="#mc021a565f7" y="224.64"/>
      </g>
     </g>
     <g id="text_1">
      <!-- 0 -->
      <g transform="translate(51.686932 239.238437)scale(0.1 -0.1)">
       <defs>
        <path d="M 31.78125 66.40625 
Q 24.171875 66.40625 20.328125 58.90625 
Q 16.5 51.421875 16.5 36.375 
Q 16.5 21.390625 20.328125 13.890625 
Q 24.171875 6.390625 31.78125 6.390625 
Q 39.453125 6.390625 43.28125 13.890625 
Q 47.125 21.390625 47.125 36.375 
Q 47.125 51.421875 43.28125 58.90625 
Q 39.453125 66.40625 31.78125 66.40625 
z
M 31.78125 74.21875 
Q 44.046875 74.21875 50.515625 64.515625 
Q 56.984375 54.828125 56.984375 36.375 
Q 56.984375 17.96875 50.515625 8.265625 
Q 44.046875 -1.421875 31.78125 -1.421875 
Q 19.53125 -1.421875 13.0625 8.265625 
Q 6.59375 17.96875 6.59375 36.375 
Q 6.59375 54.828125 13.0625 64.515625 
Q 19.53125 74.21875 31.78125 74.21875 
z
" id="DejaVuSans-48"/>
       </defs>
       <use xlink:href="#DejaVuSans-48"/>
      </g>
     </g>
    </g>
    <g id="xtick_2">
     <g id="line2d_2">
      <g>
       <use style="stroke:#000000;stroke-width:0.8;" x="116.98321" xlink:href="#mc021a565f7" y="224.64"/>
      </g>
     </g>
     <g id="text_2">
      <!-- 10 -->
      <g transform="translate(110.62071 239.238437)scale(0.1 -0.1)">
       <defs>
        <path d="M 12.40625 8.296875 
L 28.515625 8.296875 
L 28.515625 63.921875 
L 10.984375 60.40625 
L 10.984375 69.390625 
L 28.421875 72.90625 
L 38.28125 72.90625 
L 38.28125 8.296875 
L 54.390625 8.296875 
L 54.390625 0 
L 12.40625 0 
z
" id="DejaVuSans-49"/>
       </defs>
       <use xlink:href="#DejaVuSans-49"/>
       <use x="63.623047" xlink:href="#DejaVuSans-48"/>
      </g>
     </g>
    </g>
    <g id="xtick_3">
     <g id="line2d_3">
      <g>
       <use style="stroke:#000000;stroke-width:0.8;" x="179.098237" xlink:href="#mc021a565f7" y="224.64"/>
      </g>
     </g>
     <g id="text_3">
      <!-- 20 -->
      <g transform="translate(172.735737 239.238437)scale(0.1 -0.1)">
       <defs>
        <path d="M 19.1875 8.296875 
L 53.609375 8.296875 
L 53.609375 0 
L 7.328125 0 
L 7.328125 8.296875 
Q 12.9375 14.109375 22.625 23.890625 
Q 32.328125 33.6875 34.8125 36.53125 
Q 39.546875 41.84375 41.421875 45.53125 
Q 43.3125 49.21875 43.3125 52.78125 
Q 43.3125 58.59375 39.234375 62.25 
Q 35.15625 65.921875 28.609375 65.921875 
Q 23.96875 65.921875 18.8125 64.3125 
Q 13.671875 62.703125 7.8125 59.421875 
L 7.8125 69.390625 
Q 13.765625 71.78125 18.9375 73 
Q 24.125 74.21875 28.421875 74.21875 
Q 39.75 74.21875 46.484375 68.546875 
Q 53.21875 62.890625 53.21875 53.421875 
Q 53.21875 48.921875 51.53125 44.890625 
Q 49.859375 40.875 45.40625 35.40625 
Q 44.1875 33.984375 37.640625 27.21875 
Q 31.109375 20.453125 19.1875 8.296875 
z
" id="DejaVuSans-50"/>
       </defs>
       <use xlink:href="#DejaVuSans-50"/>
       <use x="63.623047" xlink:href="#DejaVuSans-48"/>
      </g>
     </g>
    </g>
    <g id="xtick_4">
     <g id="line2d_4">
      <g>
       <use style="stroke:#000000;stroke-width:0.8;" x="241.213265" xlink:href="#mc021a565f7" y="224.64"/>
      </g>
     </g>
     <g id="text_4">
      <!-- 30 -->
      <g transform="translate(234.850765 239.238437)scale(0.1 -0.1)">
       <defs>
        <path d="M 40.578125 39.3125 
Q 47.65625 37.796875 51.625 33 
Q 55.609375 28.21875 55.609375 21.1875 
Q 55.609375 10.40625 48.1875 4.484375 
Q 40.765625 -1.421875 27.09375 -1.421875 
Q 22.515625 -1.421875 17.65625 -0.515625 
Q 12.796875 0.390625 7.625 2.203125 
L 7.625 11.71875 
Q 11.71875 9.328125 16.59375 8.109375 
Q 21.484375 6.890625 26.8125 6.890625 
Q 36.078125 6.890625 40.9375 10.546875 
Q 45.796875 14.203125 45.796875 21.1875 
Q 45.796875 27.640625 41.28125 31.265625 
Q 36.765625 34.90625 28.71875 34.90625 
L 20.21875 34.90625 
L 20.21875 43.015625 
L 29.109375 43.015625 
Q 36.375 43.015625 40.234375 45.921875 
Q 44.09375 48.828125 44.09375 54.296875 
Q 44.09375 59.90625 40.109375 62.90625 
Q 36.140625 65.921875 28.71875 65.921875 
Q 24.65625 65.921875 20.015625 65.03125 
Q 15.375 64.15625 9.8125 62.3125 
L 9.8125 71.09375 
Q 15.4375 72.65625 20.34375 73.4375 
Q 25.25 74.21875 29.59375 74.21875 
Q 40.828125 74.21875 47.359375 69.109375 
Q 53.90625 64.015625 53.90625 55.328125 
Q 53.90625 49.265625 50.4375 45.09375 
Q 46.96875 40.921875 40.578125 39.3125 
z
" id="DejaVuSans-51"/>
       </defs>
       <use xlink:href="#DejaVuSans-51"/>
       <use x="63.623047" xlink:href="#DejaVuSans-48"/>
      </g>
     </g>
    </g>
    <g id="xtick_5">
     <g id="line2d_5">
      <g>
       <use style="stroke:#000000;stroke-width:0.8;" x="303.328293" xlink:href="#mc021a565f7" y="224.64"/>
      </g>
     </g>
     <g id="text_5">
      <!-- 40 -->
      <g transform="translate(296.965793 239.238437)scale(0.1 -0.1)">
       <defs>
        <path d="M 37.796875 64.3125 
L 12.890625 25.390625 
L 37.796875 25.390625 
z
M 35.203125 72.90625 
L 47.609375 72.90625 
L 47.609375 25.390625 
L 58.015625 25.390625 
L 58.015625 17.1875 
L 47.609375 17.1875 
L 47.609375 0 
L 37.796875 0 
L 37.796875 17.1875 
L 4.890625 17.1875 
L 4.890625 26.703125 
z
" id="DejaVuSans-52"/>
       </defs>
       <use xlink:href="#DejaVuSans-52"/>
       <use x="63.623047" xlink:href="#DejaVuSans-48"/>
      </g>
     </g>
    </g>
    <g id="xtick_6">
     <g id="line2d_6">
      <g>
       <use style="stroke:#000000;stroke-width:0.8;" x="365.443321" xlink:href="#mc021a565f7" y="224.64"/>
      </g>
     </g>
     <g id="text_6">
      <!-- 50 -->
      <g transform="translate(359.080821 239.238437)scale(0.1 -0.1)">
       <defs>
        <path d="M 10.796875 72.90625 
L 49.515625 72.90625 
L 49.515625 64.59375 
L 19.828125 64.59375 
L 19.828125 46.734375 
Q 21.96875 47.46875 24.109375 47.828125 
Q 26.265625 48.1875 28.421875 48.1875 
Q 40.625 48.1875 47.75 41.5 
Q 54.890625 34.8125 54.890625 23.390625 
Q 54.890625 11.625 47.5625 5.09375 
Q 40.234375 -1.421875 26.90625 -1.421875 
Q 22.3125 -1.421875 17.546875 -0.640625 
Q 12.796875 0.140625 7.71875 1.703125 
L 7.71875 11.625 
Q 12.109375 9.234375 16.796875 8.0625 
Q 21.484375 6.890625 26.703125 6.890625 
Q 35.15625 6.890625 40.078125 11.328125 
Q 45.015625 15.765625 45.015625 23.390625 
Q 45.015625 31 40.078125 35.4375 
Q 35.15625 39.890625 26.703125 39.890625 
Q 22.75 39.890625 18.8125 39.015625 
Q 14.890625 38.140625 10.796875 36.28125 
z
" id="DejaVuSans-53"/>
       </defs>
       <use xlink:href="#DejaVuSans-53"/>
       <use x="63.623047" xlink:href="#DejaVuSans-48"/>
      </g>
     </g>
    </g>
   </g>
   <g id="matplotlib.axis_2">
    <g id="ytick_1">
     <g id="line2d_7">
      <defs>
       <path d="M 0 0 
L -3.5 0 
" id="m4e47288475" style="stroke:#000000;stroke-width:0.8;"/>
      </defs>
      <g>
       <use style="stroke:#000000;stroke-width:0.8;" x="39.65" xlink:href="#m4e47288475" y="216.941117"/>
      </g>
     </g>
     <g id="text_7">
      <!-- 0 -->
      <g transform="translate(26.2875 220.740336)scale(0.1 -0.1)">
       <use xlink:href="#DejaVuSans-48"/>
      </g>
     </g>
    </g>
    <g id="ytick_2">
     <g id="line2d_8">
      <g>
       <use style="stroke:#000000;stroke-width:0.8;" x="39.65" xlink:href="#m4e47288475" y="177.362244"/>
      </g>
     </g>
     <g id="text_8">
      <!-- 1000 -->
      <g transform="translate(7.2 181.161462)scale(0.1 -0.1)">
       <use xlink:href="#DejaVuSans-49"/>
       <use x="63.623047" xlink:href="#DejaVuSans-48"/>
       <use x="127.246094" xlink:href="#DejaVuSans-48"/>
       <use x="190.869141" xlink:href="#DejaVuSans-48"/>
      </g>
     </g>
    </g>
    <g id="ytick_3">
     <g id="line2d_9">
      <g>
       <use style="stroke:#000000;stroke-width:0.8;" x="39.65" xlink:href="#m4e47288475" y="137.78337"/>
      </g>
     </g>
     <g id="text_9">
      <!-- 2000 -->
      <g transform="translate(7.2 141.582589)scale(0.1 -0.1)">
       <use xlink:href="#DejaVuSans-50"/>
       <use x="63.623047" xlink:href="#DejaVuSans-48"/>
       <use x="127.246094" xlink:href="#DejaVuSans-48"/>
       <use x="190.869141" xlink:href="#DejaVuSans-48"/>
      </g>
     </g>
    </g>
    <g id="ytick_4">
     <g id="line2d_10">
      <g>
       <use style="stroke:#000000;stroke-width:0.8;" x="39.65" xlink:href="#m4e47288475" y="98.204496"/>
      </g>
     </g>
     <g id="text_10">
      <!-- 3000 -->
      <g transform="translate(7.2 102.003715)scale(0.1 -0.1)">
       <use xlink:href="#DejaVuSans-51"/>
       <use x="63.623047" xlink:href="#DejaVuSans-48"/>
       <use x="127.246094" xlink:href="#DejaVuSans-48"/>
       <use x="190.869141" xlink:href="#DejaVuSans-48"/>
      </g>
     </g>
    </g>
    <g id="ytick_5">
     <g id="line2d_11">
      <g>
       <use style="stroke:#000000;stroke-width:0.8;" x="39.65" xlink:href="#m4e47288475" y="58.625622"/>
      </g>
     </g>
     <g id="text_11">
      <!-- 4000 -->
      <g transform="translate(7.2 62.424841)scale(0.1 -0.1)">
       <use xlink:href="#DejaVuSans-52"/>
       <use x="63.623047" xlink:href="#DejaVuSans-48"/>
       <use x="127.246094" xlink:href="#DejaVuSans-48"/>
       <use x="190.869141" xlink:href="#DejaVuSans-48"/>
      </g>
     </g>
    </g>
    <g id="ytick_6">
     <g id="line2d_12">
      <g>
       <use style="stroke:#000000;stroke-width:0.8;" x="39.65" xlink:href="#m4e47288475" y="19.046749"/>
      </g>
     </g>
     <g id="text_12">
      <!-- 5000 -->
      <g transform="translate(7.2 22.845967)scale(0.1 -0.1)">
       <use xlink:href="#DejaVuSans-53"/>
       <use x="63.623047" xlink:href="#DejaVuSans-48"/>
       <use x="127.246094" xlink:href="#DejaVuSans-48"/>
       <use x="190.869141" xlink:href="#DejaVuSans-48"/>
      </g>
     </g>
    </g>
   </g>
   <g id="line2d_13">
    <path clip-path="url(#p10889fe2b6)" d="M 54.868182 59.250969 
L 61.079685 19.656263 
L 67.291187 44.622617 
L 73.50269 41.195086 
L 79.714193 17.083636 
L 85.925696 50.800879 
L 92.137199 89.152808 
L 98.348701 92.188507 
L 104.560204 90.712215 
L 110.771707 87.308432 
L 116.98321 94.614692 
L 123.194712 95.916837 
L 129.406215 95.564585 
L 135.617718 88.448304 
L 141.829221 95.663532 
L 148.040724 95.378565 
L 154.252226 95.999953 
L 160.463729 96.126605 
L 166.675232 96.237426 
L 172.886735 96.316584 
L 179.098237 96.37991 
L 185.30974 96.419489 
L 191.521243 96.474899 
L 197.732746 96.53031 
L 203.944249 96.550099 
L 210.155751 96.573846 
L 216.367254 96.589678 
L 222.578757 96.613425 
L 228.79026 96.629257 
L 235.001763 96.653004 
L 241.213265 96.676752 
L 247.424768 96.676752 
L 253.636271 96.700499 
L 259.847774 96.708415 
L 266.059276 96.724246 
L 272.270779 96.732162 
L 278.482282 96.795488 
L 284.693785 96.803404 
L 290.905288 96.803404 
L 297.11679 96.815278 
L 303.328293 96.815278 
L 309.539796 96.839025 
L 315.751299 96.835067 
L 321.962801 96.842983 
L 328.174304 96.850899 
L 334.385807 96.850899 
L 340.59731 96.850899 
L 346.808813 96.858814 
L 353.020315 96.858814 
L 359.231818 96.86673 
" style="fill:none;stroke:#1f77b4;stroke-linecap:square;stroke-width:1.5;"/>
   </g>
   <g id="line2d_14">
    <path clip-path="url(#p10889fe2b6)" d="M 54.868182 45.940593 
L 61.079685 158.617689 
L 67.291187 130.777909 
L 73.50269 145.667482 
L 79.714193 169.117964 
L 85.925696 174.195934 
L 92.137199 174.845027 
L 98.348701 174.599638 
L 104.560204 174.833154 
L 110.771707 174.239471 
L 116.98321 175.094374 
L 123.194712 175.106248 
L 129.406215 175.110206 
L 135.617718 175.434753 
L 141.829221 175.316016 
L 148.040724 175.422879 
L 154.252226 175.442668 
L 160.463729 175.296226 
L 166.675232 173.740777 
L 172.886735 175.280395 
L 179.098237 174.864817 
L 185.30974 174.077197 
L 191.521243 175.541615 
L 197.732746 175.4585 
L 203.944249 175.399132 
L 210.155751 175.498079 
L 216.367254 175.335805 
L 222.578757 175.098332 
L 228.79026 175.486205 
L 235.001763 175.304142 
L 241.213265 175.446626 
L 247.424768 175.502037 
L 253.636271 174.59568 
L 259.847774 175.545573 
L 266.059276 175.193321 
L 272.270779 175.482247 
L 278.482282 175.454542 
L 284.693785 175.335805 
L 290.905288 175.011259 
L 297.11679 175.541615 
L 303.328293 175.430795 
L 309.539796 175.478289 
L 315.751299 175.32789 
L 321.962801 175.272479 
L 328.174304 175.5337 
L 334.385807 175.347679 
L 340.59731 175.565363 
L 346.808813 175.347679 
L 353.020315 175.339763 
L 359.231818 175.640563 
" style="fill:none;stroke:#ff7f0e;stroke-linecap:square;stroke-width:1.5;"/>
   </g>
   <g id="line2d_15">
    <path clip-path="url(#p10889fe2b6)" d="M 54.868182 58.079434 
L 61.079685 185.875659 
L 67.291187 207.711324 
L 73.50269 212.429126 
L 79.714193 212.856578 
L 85.925696 211.035949 
L 92.137199 213.941039 
L 98.348701 214.028112 
L 104.560204 214.020197 
L 110.771707 214.534722 
L 116.98321 214.170596 
L 123.194712 214.368491 
L 129.406215 214.166638 
L 135.617718 214.099354 
L 141.829221 214.348701 
L 148.040724 214.281417 
L 154.252226 213.865839 
L 160.463729 214.063733 
L 166.675232 213.810429 
L 172.886735 214.249754 
L 179.098237 213.885628 
L 185.30974 213.446303 
L 191.521243 213.968744 
L 197.732746 213.616492 
L 203.944249 214.38828 
L 210.155751 214.439733 
L 216.367254 213.766892 
L 222.578757 214.514933 
L 228.79026 214.617838 
L 235.001763 214.522848 
L 241.213265 214.435775 
L 247.424768 214.471396 
L 253.636271 213.806471 
L 259.847774 214.451606 
L 266.059276 214.479312 
L 272.270779 214.036028 
L 278.482282 214.400154 
L 284.693785 214.38828 
L 290.905288 214.439733 
L 297.11679 214.380364 
L 303.328293 214.685122 
L 309.539796 214.31308 
L 315.751299 214.637627 
L 321.962801 214.756364 
L 328.174304 214.66929 
L 334.385807 214.629711 
L 340.59731 214.467438 
L 346.808813 214.665332 
L 353.020315 214.091439 
L 359.231818 214.356617 
" style="fill:none;stroke:#2ca02c;stroke-linecap:square;stroke-width:1.5;"/>
   </g>
   <g id="line2d_16">
    <path clip-path="url(#p10889fe2b6)" d="M 54.868182 115.979368 
L 61.079685 181.20931 
L 67.291187 211.293212 
L 73.50269 210.181046 
L 79.714193 210.632245 
L 85.925696 210.853887 
L 92.137199 212.452873 
L 98.348701 213.327566 
L 104.560204 212.452873 
L 110.771707 213.533376 
L 116.98321 212.409336 
L 123.194712 212.686389 
L 129.406215 213.430471 
L 135.617718 213.109882 
L 141.829221 213.48984 
L 148.040724 213.157377 
L 154.252226 212.919904 
L 160.463729 213.873755 
L 166.675232 213.778765 
L 172.886735 214.099354 
L 179.098237 213.319651 
L 185.30974 213.39485 
L 191.521243 212.480578 
L 197.732746 213.232577 
L 203.944249 213.422556 
L 210.155751 213.485882 
L 216.367254 213.169251 
L 222.578757 213.972702 
L 228.79026 213.442345 
L 235.001763 213.418598 
L 241.213265 213.418598 
L 247.424768 213.149461 
L 253.636271 213.458177 
L 259.847774 213.683776 
L 266.059276 213.260282 
L 272.270779 213.196956 
L 278.482282 213.67586 
L 284.693785 213.466092 
L 290.905288 213.648155 
L 297.11679 214.020197 
L 303.328293 213.782723 
L 309.539796 213.703566 
L 315.751299 213.474008 
L 321.962801 213.446303 
L 328.174304 213.505671 
L 334.385807 213.521503 
L 340.59731 213.656071 
L 346.808813 213.913334 
L 353.020315 213.861881 
L 359.231818 214.028112 
" style="fill:none;stroke:#d62728;stroke-linecap:square;stroke-width:1.5;"/>
   </g>
   <g id="line2d_17">
    <path clip-path="url(#p10889fe2b6)" d="M 54.868182 152.894584 
L 61.079685 194.214928 
L 67.291187 205.593854 
L 73.50269 205.103076 
L 79.714193 207.921092 
L 85.925696 208.522691 
L 92.137199 210.711403 
L 98.348701 208.190228 
L 104.560204 209.939615 
L 110.771707 209.753594 
L 116.98321 208.202102 
L 123.194712 210.901381 
L 129.406215 210.596624 
L 135.617718 211.182391 
L 141.829221 210.592666 
L 148.040724 210.992413 
L 154.252226 209.979194 
L 160.463729 210.905339 
L 166.675232 210.731192 
L 172.886735 210.564961 
L 179.098237 211.229886 
L 185.30974 210.608498 
L 191.521243 211.16656 
L 197.732746 210.620371 
L 203.944249 211.344665 
L 210.155751 209.729847 
L 216.367254 210.897423 
L 222.578757 210.418519 
L 228.79026 211.210097 
L 235.001763 211.435696 
L 241.213265 211.051781 
L 247.424768 210.897423 
L 253.636271 210.462056 
L 259.847774 210.374982 
L 266.059276 210.402688 
L 272.270779 210.414561 
L 278.482282 210.747024 
L 284.693785 210.442266 
L 290.905288 211.285296 
L 297.11679 211.392159 
L 303.328293 210.382898 
L 309.539796 209.638815 
L 315.751299 209.737762 
L 321.962801 209.919825 
L 328.174304 211.815653 
L 334.385807 210.628287 
L 340.59731 211.716706 
L 346.808813 209.931699 
L 353.020315 211.847316 
L 359.231818 210.541214 
" style="fill:none;stroke:#9467bd;stroke-linecap:square;stroke-width:1.5;"/>
   </g>
   <g id="line2d_18">
    <path clip-path="url(#p10889fe2b6)" d="M 54.868182 127.045621 
L 61.079685 184.157936 
L 67.291187 193.997244 
L 73.50269 192.67531 
L 79.714193 188.638265 
L 85.925696 197.218965 
L 92.137199 199.399761 
L 98.348701 198.279678 
L 104.560204 197.630585 
L 110.771707 199.336434 
L 116.98321 195.825788 
L 123.194712 197.076481 
L 129.406215 203.314111 
L 135.617718 204.936845 
L 141.829221 195.623936 
L 148.040724 201.540978 
L 154.252226 198.390499 
L 160.463729 202.653144 
L 166.675232 191.911438 
L 172.886735 186.089385 
L 179.098237 200.48818 
L 185.30974 199.783676 
L 191.521243 198.897109 
L 197.732746 198.936688 
L 203.944249 194.341581 
L 210.155751 204.794361 
L 216.367254 203.812805 
L 222.578757 199.379971 
L 228.79026 200.39319 
L 235.001763 194.931306 
L 241.213265 203.91571 
L 247.424768 195.295431 
L 253.636271 200.828558 
L 259.847774 198.493404 
L 266.059276 200.697948 
L 272.270779 200.622748 
L 278.482282 195.453747 
L 284.693785 202.24944 
L 290.905288 201.53702 
L 297.11679 202.348387 
L 303.328293 193.94975 
L 309.539796 202.391923 
L 315.751299 201.216431 
L 321.962801 200.389232 
L 328.174304 198.058037 
L 334.385807 198.058037 
L 340.59731 201.168936 
L 346.808813 202.862912 
L 353.020315 198.647762 
L 359.231818 201.505357 
" style="fill:none;stroke:#8c564b;stroke-linecap:square;stroke-width:1.5;"/>
   </g>
   <g id="line2d_19">
    <path clip-path="url(#p10889fe2b6)" d="M 54.868182 158.80371 
L 61.079685 113.299879 
L 67.291187 74.53633 
L 73.50269 110.188979 
L 79.714193 127.908441 
L 85.925696 124.940025 
L 92.137199 105.93425 
L 98.348701 125.711813 
L 104.560204 127.176232 
L 110.771707 111.64944 
L 116.98321 127.904483 
L 123.194712 144.393042 
L 129.406215 141.77292 
L 135.617718 98.366769 
L 141.829221 76.78441 
L 148.040724 96.292836 
L 154.252226 138.792631 
L 160.463729 68.116636 
L 166.675232 92.786148 
L 172.886735 115.678569 
L 179.098237 62.876393 
L 185.30974 146.755901 
L 191.521243 137.601307 
L 197.732746 79.29371 
L 203.944249 77.856997 
L 210.155751 97.919528 
L 216.367254 115.872505 
L 222.578757 114.000425 
L 228.79026 124.682763 
L 235.001763 72.355534 
L 241.213265 121.243359 
L 247.424768 105.977787 
L 253.636271 124.330511 
L 259.847774 125.248741 
L 266.059276 93.593557 
L 272.270779 137.617139 
L 278.482282 49.807449 
L 284.693785 92.402233 
L 290.905288 127.568063 
L 297.11679 83.212019 
L 303.328293 124.643184 
L 309.539796 120.451781 
L 315.751299 163.751069 
L 321.962801 134.217313 
L 328.174304 81.217243 
L 334.385807 52.609633 
L 340.59731 137.225308 
L 346.808813 119.050689 
L 353.020315 101.378722 
L 359.231818 111.55445 
" style="fill:none;stroke:#e377c2;stroke-linecap:square;stroke-width:1.5;"/>
   </g>
   <g id="patch_3">
    <path d="M 39.65 224.64 
L 39.65 7.2 
" style="fill:none;stroke:#000000;stroke-linecap:square;stroke-linejoin:miter;stroke-width:0.8;"/>
   </g>
   <g id="patch_4">
    <path d="M 374.45 224.64 
L 374.45 7.2 
" style="fill:none;stroke:#000000;stroke-linecap:square;stroke-linejoin:miter;stroke-width:0.8;"/>
   </g>
   <g id="patch_5">
    <path d="M 39.65 224.64 
L 374.45 224.64 
" style="fill:none;stroke:#000000;stroke-linecap:square;stroke-linejoin:miter;stroke-width:0.8;"/>
   </g>
   <g id="patch_6">
    <path d="M 39.65 7.2 
L 374.45 7.2 
" style="fill:none;stroke:#000000;stroke-linecap:square;stroke-linejoin:miter;stroke-width:0.8;"/>
   </g>
   <g id="legend_1">
    <g id="patch_7">
     <path d="M 313.184375 117.946875 
L 367.45 117.946875 
Q 369.45 117.946875 369.45 115.946875 
L 369.45 14.2 
Q 369.45 12.2 367.45 12.2 
L 313.184375 12.2 
Q 311.184375 12.2 311.184375 14.2 
L 311.184375 115.946875 
Q 311.184375 117.946875 313.184375 117.946875 
z
" style="fill:#ffffff;opacity:0.8;stroke:#cccccc;stroke-linejoin:miter;"/>
    </g>
    <g id="line2d_20">
     <path d="M 315.184375 20.298437 
L 335.184375 20.298437 
" style="fill:none;stroke:#1f77b4;stroke-linecap:square;stroke-width:1.5;"/>
    </g>
    <g id="line2d_21"/>
    <g id="text_13">
     <!-- 0 -->
     <g transform="translate(343.184375 23.798437)scale(0.1 -0.1)">
      <use xlink:href="#DejaVuSans-48"/>
     </g>
    </g>
    <g id="line2d_22">
     <path d="M 315.184375 34.976562 
L 335.184375 34.976562 
" style="fill:none;stroke:#ff7f0e;stroke-linecap:square;stroke-width:1.5;"/>
    </g>
    <g id="line2d_23"/>
    <g id="text_14">
     <!-- 0.1 -->
     <g transform="translate(343.184375 38.476562)scale(0.1 -0.1)">
      <defs>
       <path d="M 10.6875 12.40625 
L 21 12.40625 
L 21 0 
L 10.6875 0 
z
" id="DejaVuSans-46"/>
      </defs>
      <use xlink:href="#DejaVuSans-48"/>
      <use x="63.623047" xlink:href="#DejaVuSans-46"/>
      <use x="95.410156" xlink:href="#DejaVuSans-49"/>
     </g>
    </g>
    <g id="line2d_24">
     <path d="M 315.184375 49.654687 
L 335.184375 49.654687 
" style="fill:none;stroke:#2ca02c;stroke-linecap:square;stroke-width:1.5;"/>
    </g>
    <g id="line2d_25"/>
    <g id="text_15">
     <!-- 0.25 -->
     <g transform="translate(343.184375 53.154687)scale(0.1 -0.1)">
      <use xlink:href="#DejaVuSans-48"/>
      <use x="63.623047" xlink:href="#DejaVuSans-46"/>
      <use x="95.410156" xlink:href="#DejaVuSans-50"/>
      <use x="159.033203" xlink:href="#DejaVuSans-53"/>
     </g>
    </g>
    <g id="line2d_26">
     <path d="M 315.184375 64.332812 
L 335.184375 64.332812 
" style="fill:none;stroke:#d62728;stroke-linecap:square;stroke-width:1.5;"/>
    </g>
    <g id="line2d_27"/>
    <g id="text_16">
     <!-- 0.5 -->
     <g transform="translate(343.184375 67.832812)scale(0.1 -0.1)">
      <use xlink:href="#DejaVuSans-48"/>
      <use x="63.623047" xlink:href="#DejaVuSans-46"/>
      <use x="95.410156" xlink:href="#DejaVuSans-53"/>
     </g>
    </g>
    <g id="line2d_28">
     <path d="M 315.184375 79.010937 
L 335.184375 79.010937 
" style="fill:none;stroke:#9467bd;stroke-linecap:square;stroke-width:1.5;"/>
    </g>
    <g id="line2d_29"/>
    <g id="text_17">
     <!-- 0.75 -->
     <g transform="translate(343.184375 82.510937)scale(0.1 -0.1)">
      <defs>
       <path d="M 8.203125 72.90625 
L 55.078125 72.90625 
L 55.078125 68.703125 
L 28.609375 0 
L 18.3125 0 
L 43.21875 64.59375 
L 8.203125 64.59375 
z
" id="DejaVuSans-55"/>
      </defs>
      <use xlink:href="#DejaVuSans-48"/>
      <use x="63.623047" xlink:href="#DejaVuSans-46"/>
      <use x="95.410156" xlink:href="#DejaVuSans-55"/>
      <use x="159.033203" xlink:href="#DejaVuSans-53"/>
     </g>
    </g>
    <g id="line2d_30">
     <path d="M 315.184375 93.689062 
L 335.184375 93.689062 
" style="fill:none;stroke:#8c564b;stroke-linecap:square;stroke-width:1.5;"/>
    </g>
    <g id="line2d_31"/>
    <g id="text_18">
     <!-- 0.9 -->
     <g transform="translate(343.184375 97.189062)scale(0.1 -0.1)">
      <defs>
       <path d="M 10.984375 1.515625 
L 10.984375 10.5 
Q 14.703125 8.734375 18.5 7.8125 
Q 22.3125 6.890625 25.984375 6.890625 
Q 35.75 6.890625 40.890625 13.453125 
Q 46.046875 20.015625 46.78125 33.40625 
Q 43.953125 29.203125 39.59375 26.953125 
Q 35.25 24.703125 29.984375 24.703125 
Q 19.046875 24.703125 12.671875 31.3125 
Q 6.296875 37.9375 6.296875 49.421875 
Q 6.296875 60.640625 12.9375 67.421875 
Q 19.578125 74.21875 30.609375 74.21875 
Q 43.265625 74.21875 49.921875 64.515625 
Q 56.59375 54.828125 56.59375 36.375 
Q 56.59375 19.140625 48.40625 8.859375 
Q 40.234375 -1.421875 26.421875 -1.421875 
Q 22.703125 -1.421875 18.890625 -0.6875 
Q 15.09375 0.046875 10.984375 1.515625 
z
M 30.609375 32.421875 
Q 37.25 32.421875 41.125 36.953125 
Q 45.015625 41.5 45.015625 49.421875 
Q 45.015625 57.28125 41.125 61.84375 
Q 37.25 66.40625 30.609375 66.40625 
Q 23.96875 66.40625 20.09375 61.84375 
Q 16.21875 57.28125 16.21875 49.421875 
Q 16.21875 41.5 20.09375 36.953125 
Q 23.96875 32.421875 30.609375 32.421875 
z
" id="DejaVuSans-57"/>
      </defs>
      <use xlink:href="#DejaVuSans-48"/>
      <use x="63.623047" xlink:href="#DejaVuSans-46"/>
      <use x="95.410156" xlink:href="#DejaVuSans-57"/>
     </g>
    </g>
    <g id="line2d_32">
     <path d="M 315.184375 108.367187 
L 335.184375 108.367187 
" style="fill:none;stroke:#e377c2;stroke-linecap:square;stroke-width:1.5;"/>
    </g>
    <g id="line2d_33"/>
    <g id="text_19">
     <!-- 1 -->
     <g transform="translate(343.184375 111.867187)scale(0.1 -0.1)">
      <use xlink:href="#DejaVuSans-49"/>
     </g>
    </g>
   </g>
  </g>
 </g>
 <defs>
  <clipPath id="p10889fe2b6">
   <rect height="217.44" width="334.8" x="39.65" y="7.2"/>
  </clipPath>
 </defs>
</svg>
