<?xml version="1.0" encoding="utf-8" standalone="no"?>
<!DOCTYPE svg PUBLIC "-//W3C//DTD SVG 1.1//EN"
  "http://www.w3.org/Graphics/SVG/1.1/DTD/svg11.dtd">
<!-- Created with matplotlib (https://matplotlib.org/) -->
<svg height="241.762917pt" version="1.1" viewBox="0 0 247.826402 241.762917" width="247.826402pt" xmlns="http://www.w3.org/2000/svg" xmlns:xlink="http://www.w3.org/1999/xlink">
 <metadata>
  <rdf:RDF xmlns:cc="http://creativecommons.org/ns#" xmlns:dc="http://purl.org/dc/elements/1.1/" xmlns:rdf="http://www.w3.org/1999/02/22-rdf-syntax-ns#">
   <cc:Work>
    <dc:type rdf:resource="http://purl.org/dc/dcmitype/StillImage"/>
    <dc:date>2021-05-03T16:47:23.577557</dc:date>
    <dc:format>image/svg+xml</dc:format>
    <dc:creator>
     <cc:Agent>
      <dc:title>Matplotlib v3.3.2, https://matplotlib.org/</dc:title>
     </cc:Agent>
    </dc:creator>
   </cc:Work>
  </rdf:RDF>
 </metadata>
 <defs>
  <style type="text/css">*{stroke-linecap:butt;stroke-linejoin:round;}</style>
 </defs>
 <g id="figure_1">
  <g id="patch_1">
   <path d="M 0 241.762917 
L 247.826402 241.762917 
L 247.826402 0 
L 0 0 
z
" style="fill:none;"/>
  </g>
  <g id="patch_2">
   <path d="M 7.2 224.64 
L 224.64 224.64 
L 224.64 7.2 
L 7.2 7.2 
z
" style="fill:#ffffff;"/>
  </g>
  <g id="pane3d_1">
   <g id="patch_3">
    <path d="M 23.61822 171.026264 
L 95.424009 110.837228 
L 94.42584 24.033878 
L 19.183773 78.942111 
" style="fill:#f2f2f2;opacity:0.5;stroke:#f2f2f2;stroke-linejoin:miter;"/>
   </g>
  </g>
  <g id="pane3d_2">
   <g id="patch_4">
    <path d="M 95.424009 110.837228 
L 210.64668 144.32791 
L 214.758571 54.534718 
L 94.42584 24.033878 
" style="fill:#e6e6e6;opacity:0.5;stroke:#e6e6e6;stroke-linejoin:miter;"/>
   </g>
  </g>
  <g id="pane3d_3">
   <g id="patch_5">
    <path d="M 23.61822 171.026264 
L 145.759879 210.91773 
L 210.64668 144.32791 
L 95.424009 110.837228 
" style="fill:#ececec;opacity:0.5;stroke:#ececec;stroke-linejoin:miter;"/>
   </g>
  </g>
  <g id="axis3d_1">
   <g id="line2d_1">
    <path d="M 23.61822 171.026264 
L 145.759879 210.91773 
" style="fill:none;stroke:#000000;stroke-linecap:square;stroke-width:0.8;"/>
   </g>
   <g id="Line3DCollection_1">
    <path d="M 31.015759 173.442301 
L 102.431499 112.874029 
L 101.729612 25.885171 
" style="fill:none;stroke:#b0b0b0;stroke-width:0.8;"/>
    <path d="M 51.557499 180.151233 
L 121.87046 118.524167 
L 122.000278 31.023194 
" style="fill:none;stroke:#b0b0b0;stroke-width:0.8;"/>
    <path d="M 72.475602 186.983086 
L 141.635901 124.269201 
L 142.626195 36.251263 
" style="fill:none;stroke:#b0b0b0;stroke-width:0.8;"/>
    <path d="M 93.780508 193.941268 
L 161.736116 130.111539 
L 163.616782 41.571765 
" style="fill:none;stroke:#b0b0b0;stroke-width:0.8;"/>
    <path d="M 115.483044 201.029316 
L 182.179682 136.053677 
L 184.981798 46.987173 
" style="fill:none;stroke:#b0b0b0;stroke-width:0.8;"/>
    <path d="M 137.594449 208.250901 
L 202.975474 142.098193 
L 206.73135 52.500051 
" style="fill:none;stroke:#b0b0b0;stroke-width:0.8;"/>
   </g>
   <g id="xtick_1">
    <g id="line2d_2">
     <path d="M 31.637644 172.914876 
L 29.769322 174.499414 
" style="fill:none;stroke:#000000;stroke-linecap:square;stroke-width:0.8;"/>
    </g>
    <g id="text_1">
     <!-- 0.0 -->
     <g transform="translate(15.528877 196.764533)scale(0.1 -0.1)">
      <defs>
       <path d="M 31.78125 66.40625 
Q 24.171875 66.40625 20.328125 58.90625 
Q 16.5 51.421875 16.5 36.375 
Q 16.5 21.390625 20.328125 13.890625 
Q 24.171875 6.390625 31.78125 6.390625 
Q 39.453125 6.390625 43.28125 13.890625 
Q 47.125 21.390625 47.125 36.375 
Q 47.125 51.421875 43.28125 58.90625 
Q 39.453125 66.40625 31.78125 66.40625 
z
M 31.78125 74.21875 
Q 44.046875 74.21875 50.515625 64.515625 
Q 56.984375 54.828125 56.984375 36.375 
Q 56.984375 17.96875 50.515625 8.265625 
Q 44.046875 -1.421875 31.78125 -1.421875 
Q 19.53125 -1.421875 13.0625 8.265625 
Q 6.59375 17.96875 6.59375 36.375 
Q 6.59375 54.828125 13.0625 64.515625 
Q 19.53125 74.21875 31.78125 74.21875 
z
" id="DejaVuSans-48"/>
       <path d="M 10.6875 12.40625 
L 21 12.40625 
L 21 0 
L 10.6875 0 
z
" id="DejaVuSans-46"/>
      </defs>
      <use xlink:href="#DejaVuSans-48"/>
      <use x="63.623047" xlink:href="#DejaVuSans-46"/>
      <use x="95.410156" xlink:href="#DejaVuSans-48"/>
     </g>
    </g>
   </g>
   <g id="xtick_2">
    <g id="line2d_3">
     <path d="M 52.170232 179.614192 
L 50.32938 181.22764 
" style="fill:none;stroke:#000000;stroke-linecap:square;stroke-width:0.8;"/>
    </g>
    <g id="text_2">
     <!-- 0.2 -->
     <g transform="translate(36.096281 203.647684)scale(0.1 -0.1)">
      <defs>
       <path d="M 19.1875 8.296875 
L 53.609375 8.296875 
L 53.609375 0 
L 7.328125 0 
L 7.328125 8.296875 
Q 12.9375 14.109375 22.625 23.890625 
Q 32.328125 33.6875 34.8125 36.53125 
Q 39.546875 41.84375 41.421875 45.53125 
Q 43.3125 49.21875 43.3125 52.78125 
Q 43.3125 58.59375 39.234375 62.25 
Q 35.15625 65.921875 28.609375 65.921875 
Q 23.96875 65.921875 18.8125 64.3125 
Q 13.671875 62.703125 7.8125 59.421875 
L 7.8125 69.390625 
Q 13.765625 71.78125 18.9375 73 
Q 24.125 74.21875 28.421875 74.21875 
Q 39.75 74.21875 46.484375 68.546875 
Q 53.21875 62.890625 53.21875 53.421875 
Q 53.21875 48.921875 51.53125 44.890625 
Q 49.859375 40.875 45.40625 35.40625 
Q 44.1875 33.984375 37.640625 27.21875 
Q 31.109375 20.453125 19.1875 8.296875 
z
" id="DejaVuSans-50"/>
      </defs>
      <use xlink:href="#DejaVuSans-48"/>
      <use x="63.623047" xlink:href="#DejaVuSans-46"/>
      <use x="95.410156" xlink:href="#DejaVuSans-50"/>
     </g>
    </g>
   </g>
   <g id="xtick_3">
    <g id="line2d_4">
     <path d="M 73.078743 186.436164 
L 71.266686 188.079319 
" style="fill:none;stroke:#000000;stroke-linecap:square;stroke-width:0.8;"/>
    </g>
    <g id="text_3">
     <!-- 0.4 -->
     <g transform="translate(57.042266 210.657531)scale(0.1 -0.1)">
      <defs>
       <path d="M 37.796875 64.3125 
L 12.890625 25.390625 
L 37.796875 25.390625 
z
M 35.203125 72.90625 
L 47.609375 72.90625 
L 47.609375 25.390625 
L 58.015625 25.390625 
L 58.015625 17.1875 
L 47.609375 17.1875 
L 47.609375 0 
L 37.796875 0 
L 37.796875 17.1875 
L 4.890625 17.1875 
L 4.890625 26.703125 
z
" id="DejaVuSans-52"/>
      </defs>
      <use xlink:href="#DejaVuSans-48"/>
      <use x="63.623047" xlink:href="#DejaVuSans-46"/>
      <use x="95.410156" xlink:href="#DejaVuSans-52"/>
     </g>
    </g>
   </g>
   <g id="xtick_4">
    <g id="line2d_5">
     <path d="M 94.373595 193.384189 
L 92.591718 195.057881 
" style="fill:none;stroke:#000000;stroke-linecap:square;stroke-width:0.8;"/>
    </g>
    <g id="text_4">
     <!-- 0.6 -->
     <g transform="translate(78.377381 217.797606)scale(0.1 -0.1)">
      <defs>
       <path d="M 33.015625 40.375 
Q 26.375 40.375 22.484375 35.828125 
Q 18.609375 31.296875 18.609375 23.390625 
Q 18.609375 15.53125 22.484375 10.953125 
Q 26.375 6.390625 33.015625 6.390625 
Q 39.65625 6.390625 43.53125 10.953125 
Q 47.40625 15.53125 47.40625 23.390625 
Q 47.40625 31.296875 43.53125 35.828125 
Q 39.65625 40.375 33.015625 40.375 
z
M 52.59375 71.296875 
L 52.59375 62.3125 
Q 48.875 64.0625 45.09375 64.984375 
Q 41.3125 65.921875 37.59375 65.921875 
Q 27.828125 65.921875 22.671875 59.328125 
Q 17.53125 52.734375 16.796875 39.40625 
Q 19.671875 43.65625 24.015625 45.921875 
Q 28.375 48.1875 33.59375 48.1875 
Q 44.578125 48.1875 50.953125 41.515625 
Q 57.328125 34.859375 57.328125 23.390625 
Q 57.328125 12.15625 50.6875 5.359375 
Q 44.046875 -1.421875 33.015625 -1.421875 
Q 20.359375 -1.421875 13.671875 8.265625 
Q 6.984375 17.96875 6.984375 36.375 
Q 6.984375 53.65625 15.1875 63.9375 
Q 23.390625 74.21875 37.203125 74.21875 
Q 40.921875 74.21875 44.703125 73.484375 
Q 48.484375 72.75 52.59375 71.296875 
z
" id="DejaVuSans-54"/>
      </defs>
      <use xlink:href="#DejaVuSans-48"/>
      <use x="63.623047" xlink:href="#DejaVuSans-46"/>
      <use x="95.410156" xlink:href="#DejaVuSans-54"/>
     </g>
    </g>
   </g>
   <g id="xtick_5">
    <g id="line2d_6">
     <path d="M 116.065596 200.461796 
L 114.315348 202.166882 
" style="fill:none;stroke:#000000;stroke-linecap:square;stroke-width:0.8;"/>
    </g>
    <g id="text_5">
     <!-- 0.8 -->
     <g transform="translate(100.112572 225.071572)scale(0.1 -0.1)">
      <defs>
       <path d="M 31.78125 34.625 
Q 24.75 34.625 20.71875 30.859375 
Q 16.703125 27.09375 16.703125 20.515625 
Q 16.703125 13.921875 20.71875 10.15625 
Q 24.75 6.390625 31.78125 6.390625 
Q 38.8125 6.390625 42.859375 10.171875 
Q 46.921875 13.96875 46.921875 20.515625 
Q 46.921875 27.09375 42.890625 30.859375 
Q 38.875 34.625 31.78125 34.625 
z
M 21.921875 38.8125 
Q 15.578125 40.375 12.03125 44.71875 
Q 8.5 49.078125 8.5 55.328125 
Q 8.5 64.0625 14.71875 69.140625 
Q 20.953125 74.21875 31.78125 74.21875 
Q 42.671875 74.21875 48.875 69.140625 
Q 55.078125 64.0625 55.078125 55.328125 
Q 55.078125 49.078125 51.53125 44.71875 
Q 48 40.375 41.703125 38.8125 
Q 48.828125 37.15625 52.796875 32.3125 
Q 56.78125 27.484375 56.78125 20.515625 
Q 56.78125 9.90625 50.3125 4.234375 
Q 43.84375 -1.421875 31.78125 -1.421875 
Q 19.734375 -1.421875 13.25 4.234375 
Q 6.78125 9.90625 6.78125 20.515625 
Q 6.78125 27.484375 10.78125 32.3125 
Q 14.796875 37.15625 21.921875 38.8125 
z
M 18.3125 54.390625 
Q 18.3125 48.734375 21.84375 45.5625 
Q 25.390625 42.390625 31.78125 42.390625 
Q 38.140625 42.390625 41.71875 45.5625 
Q 45.3125 48.734375 45.3125 54.390625 
Q 45.3125 60.0625 41.71875 63.234375 
Q 38.140625 66.40625 31.78125 66.40625 
Q 25.390625 66.40625 21.84375 63.234375 
Q 18.3125 60.0625 18.3125 54.390625 
z
" id="DejaVuSans-56"/>
      </defs>
      <use xlink:href="#DejaVuSans-48"/>
      <use x="63.623047" xlink:href="#DejaVuSans-46"/>
      <use x="95.410156" xlink:href="#DejaVuSans-56"/>
     </g>
    </g>
   </g>
   <g id="xtick_6">
    <g id="line2d_7">
     <path d="M 138.165962 207.672643 
L 136.448856 209.410015 
" style="fill:none;stroke:#000000;stroke-linecap:square;stroke-width:0.8;"/>
    </g>
    <g id="text_6">
     <!-- 1.0 -->
     <g transform="translate(122.259199 232.48323)scale(0.1 -0.1)">
      <defs>
       <path d="M 12.40625 8.296875 
L 28.515625 8.296875 
L 28.515625 63.921875 
L 10.984375 60.40625 
L 10.984375 69.390625 
L 28.421875 72.90625 
L 38.28125 72.90625 
L 38.28125 8.296875 
L 54.390625 8.296875 
L 54.390625 0 
L 12.40625 0 
z
" id="DejaVuSans-49"/>
      </defs>
      <use xlink:href="#DejaVuSans-49"/>
      <use x="63.623047" xlink:href="#DejaVuSans-46"/>
      <use x="95.410156" xlink:href="#DejaVuSans-48"/>
     </g>
    </g>
   </g>
  </g>
  <g id="axis3d_2">
   <g id="line2d_8">
    <path d="M 210.64668 144.32791 
L 145.759879 210.91773 
" style="fill:none;stroke:#000000;stroke-linecap:square;stroke-width:0.8;"/>
   </g>
   <g id="Line3DCollection_2">
    <path d="M 24.386948 75.145071 
L 28.566245 166.878731 
L 150.249543 206.31023 
" style="fill:none;stroke:#b0b0b0;stroke-width:0.8;"/>
    <path d="M 38.348843 64.956316 
L 41.856316 155.73873 
L 162.294948 193.948681 
" style="fill:none;stroke:#b0b0b0;stroke-width:0.8;"/>
    <path d="M 51.873665 55.086517 
L 54.748199 144.932498 
L 173.960642 181.976809 
" style="fill:none;stroke:#b0b0b0;stroke-width:0.8;"/>
    <path d="M 64.981621 45.520927 
L 67.259526 134.445256 
L 185.264301 170.376475 
" style="fill:none;stroke:#b0b0b0;stroke-width:0.8;"/>
    <path d="M 77.691693 36.245695 
L 79.406902 124.263085 
L 196.22252 159.130646 
" style="fill:none;stroke:#b0b0b0;stroke-width:0.8;"/>
    <path d="M 90.021727 27.247799 
L 91.20598 114.372864 
L 206.850896 148.223317 
" style="fill:none;stroke:#b0b0b0;stroke-width:0.8;"/>
   </g>
   <g id="xtick_7">
    <g id="line2d_9">
     <path d="M 149.224115 205.977939 
L 152.303053 206.97567 
" style="fill:none;stroke:#000000;stroke-linecap:square;stroke-width:0.8;"/>
    </g>
    <g id="text_7">
     <!-- 0.0 -->
     <g transform="translate(155.180341 227.333759)scale(0.1 -0.1)">
      <use xlink:href="#DejaVuSans-48"/>
      <use x="63.623047" xlink:href="#DejaVuSans-46"/>
      <use x="95.410156" xlink:href="#DejaVuSans-48"/>
     </g>
    </g>
   </g>
   <g id="xtick_8">
    <g id="line2d_10">
     <path d="M 161.280832 193.626946 
L 164.325762 194.59297 
" style="fill:none;stroke:#000000;stroke-linecap:square;stroke-width:0.8;"/>
    </g>
    <g id="text_8">
     <!-- 0.2 -->
     <g transform="translate(167.027985 214.74815)scale(0.1 -0.1)">
      <use xlink:href="#DejaVuSans-48"/>
      <use x="63.623047" xlink:href="#DejaVuSans-46"/>
      <use x="95.410156" xlink:href="#DejaVuSans-50"/>
     </g>
    </g>
   </g>
   <g id="xtick_9">
    <g id="line2d_11">
     <path d="M 172.957639 181.665134 
L 175.96916 182.60094 
" style="fill:none;stroke:#000000;stroke-linecap:square;stroke-width:0.8;"/>
    </g>
    <g id="text_9">
     <!-- 0.4 -->
     <g transform="translate(178.501887 202.559564)scale(0.1 -0.1)">
      <use xlink:href="#DejaVuSans-48"/>
      <use x="63.623047" xlink:href="#DejaVuSans-46"/>
      <use x="95.410156" xlink:href="#DejaVuSans-52"/>
     </g>
    </g>
   </g>
   <g id="xtick_10">
    <g id="line2d_12">
     <path d="M 184.272216 170.074395 
L 187.250917 170.981379 
" style="fill:none;stroke:#000000;stroke-linecap:square;stroke-width:0.8;"/>
    </g>
    <g id="text_10">
     <!-- 0.6 -->
     <g transform="translate(189.619457 190.749504)scale(0.1 -0.1)">
      <use xlink:href="#DejaVuSans-48"/>
      <use x="63.623047" xlink:href="#DejaVuSans-46"/>
      <use x="95.410156" xlink:href="#DejaVuSans-54"/>
     </g>
    </g>
   </g>
   <g id="xtick_11">
    <g id="line2d_13">
     <path d="M 195.241159 158.837726 
L 198.187625 159.717198 
" style="fill:none;stroke:#000000;stroke-linecap:square;stroke-width:0.8;"/>
    </g>
    <g id="text_11">
     <!-- 0.8 -->
     <g transform="translate(200.39704 179.300607)scale(0.1 -0.1)">
      <use xlink:href="#DejaVuSans-48"/>
      <use x="63.623047" xlink:href="#DejaVuSans-46"/>
      <use x="95.410156" xlink:href="#DejaVuSans-56"/>
     </g>
    </g>
   </g>
   <g id="xtick_12">
    <g id="line2d_14">
     <path d="M 205.880068 147.939146 
L 208.794875 148.79234 
" style="fill:none;stroke:#000000;stroke-linecap:square;stroke-width:0.8;"/>
    </g>
    <g id="text_12">
     <!-- 1.0 -->
     <g transform="translate(210.849998 168.196556)scale(0.1 -0.1)">
      <use xlink:href="#DejaVuSans-49"/>
      <use x="63.623047" xlink:href="#DejaVuSans-46"/>
      <use x="95.410156" xlink:href="#DejaVuSans-48"/>
     </g>
    </g>
   </g>
  </g>
  <g id="axis3d_3">
   <g id="line2d_15">
    <path d="M 210.64668 144.32791 
L 214.758571 54.534718 
" style="fill:none;stroke:#000000;stroke-linecap:square;stroke-width:0.8;"/>
   </g>
   <g id="Line3DCollection_3">
    <path d="M 210.725459 142.607571 
L 95.404845 109.170725 
L 23.533401 169.264949 
" style="fill:none;stroke:#b0b0b0;stroke-width:0.8;"/>
    <path d="M 211.734957 120.562722 
L 95.159417 87.827669 
L 22.446028 146.684943 
" style="fill:none;stroke:#b0b0b0;stroke-width:0.8;"/>
    <path d="M 212.766887 98.028003 
L 94.908798 66.033202 
L 21.333561 123.583852 
" style="fill:none;stroke:#b0b0b0;stroke-width:0.8;"/>
    <path d="M 213.822006 74.986901 
L 94.652822 43.772852 
L 20.195122 99.943428 
" style="fill:none;stroke:#b0b0b0;stroke-width:0.8;"/>
   </g>
   <g id="xtick_13">
    <g id="line2d_16">
     <path d="M 209.757563 142.326933 
L 212.663556 143.169516 
" style="fill:none;stroke:#000000;stroke-linecap:square;stroke-width:0.8;"/>
    </g>
    <g id="text_13">
     <!-- 0.0 -->
     <g transform="translate(221.025603 147.606846)scale(0.1 -0.1)">
      <use xlink:href="#DejaVuSans-48"/>
      <use x="63.623047" xlink:href="#DejaVuSans-46"/>
      <use x="95.410156" xlink:href="#DejaVuSans-48"/>
     </g>
    </g>
   </g>
   <g id="xtick_14">
    <g id="line2d_17">
     <path d="M 210.756025 120.287833 
L 213.695178 121.113163 
" style="fill:none;stroke:#000000;stroke-linecap:square;stroke-width:0.8;"/>
    </g>
    <g id="text_14">
     <!-- 0.2 -->
     <g transform="translate(222.231173 125.615332)scale(0.1 -0.1)">
      <use xlink:href="#DejaVuSans-48"/>
      <use x="63.623047" xlink:href="#DejaVuSans-46"/>
      <use x="95.410156" xlink:href="#DejaVuSans-50"/>
     </g>
    </g>
   </g>
   <g id="xtick_15">
    <g id="line2d_18">
     <path d="M 211.776664 97.759188 
L 214.749742 98.566286 
" style="fill:none;stroke:#000000;stroke-linecap:square;stroke-width:0.8;"/>
    </g>
    <g id="text_15">
     <!-- 0.4 -->
     <g transform="translate(223.463432 103.136966)scale(0.1 -0.1)">
      <use xlink:href="#DejaVuSans-48"/>
      <use x="63.623047" xlink:href="#DejaVuSans-46"/>
      <use x="95.410156" xlink:href="#DejaVuSans-52"/>
     </g>
    </g>
   </g>
   <g id="xtick_16">
    <g id="line2d_19">
     <path d="M 212.82023 74.724505 
L 215.828024 75.512338 
" style="fill:none;stroke:#000000;stroke-linecap:square;stroke-width:0.8;"/>
    </g>
    <g id="text_16">
     <!-- 0.6 -->
     <g transform="translate(224.723277 80.1554)scale(0.1 -0.1)">
      <use xlink:href="#DejaVuSans-48"/>
      <use x="63.623047" xlink:href="#DejaVuSans-46"/>
      <use x="95.410156" xlink:href="#DejaVuSans-54"/>
     </g>
    </g>
   </g>
  </g>
  <g id="axes_1">
   <g id="Line3DCollection_4">
    <path clip-path="url(#p712c08d9b9)" d="M 35.864465 167.508925 
L 41.22007 169.240313 
L 46.601031 170.979898 
L 52.007529 172.727739 
L 57.439746 174.483894 
L 62.897866 176.248424 
L 68.382075 178.021387 
L 73.89256 179.802846 
L 79.429511 181.59286 
L 84.993118 183.391492 
L 90.583575 185.198804 
L 96.201077 187.014859 
L 101.845819 188.839721 
L 107.518002 190.673454 
L 113.217824 192.516122 
L 118.94549 194.367792 
L 124.701203 196.228529 
L 130.48517 198.0984 
L 136.2976 199.977472 
L 142.138703 201.865814 
" style="fill:none;stroke:#1f77b4;stroke-width:1.5;"/>
    <path clip-path="url(#p712c08d9b9)" d="M 39.386455 164.529298 
L 44.728525 166.246624 
L 50.095785 167.972048 
L 55.488412 169.705627 
L 60.906587 171.447418 
L 66.350492 173.197481 
L 71.82031 174.955875 
L 77.316228 176.722658 
L 82.838431 178.497892 
L 88.38711 180.281637 
L 93.962455 182.073954 
L 99.564659 183.874906 
L 105.193916 185.684554 
L 110.850424 187.502963 
L 116.534379 189.330196 
L 122.245982 191.166316 
L 127.985437 193.01139 
L 133.752946 194.865483 
L 139.548716 196.728661 
L 145.372956 198.60099 
" style="fill:none;stroke:#1f77b4;stroke-width:1.5;"/>
    <path clip-path="url(#p712c08d9b9)" d="M 42.879931 161.573794 
L 48.208511 163.277229 
L 53.562113 164.988663 
L 58.940916 166.708154 
L 64.345097 168.435757 
L 69.774836 170.17153 
L 75.230315 171.915533 
L 80.711717 173.667822 
L 86.219228 175.428458 
L 91.753035 177.197499 
L 97.313326 178.975008 
L 102.900293 180.761044 
L 108.514126 182.555668 
L 114.155022 184.358944 
L 119.823175 186.170934 
L 125.518784 187.9917 
L 131.242049 189.821308 
L 136.993172 191.659821 
L 142.772356 193.507305 
L 148.579809 195.363826 
" style="fill:none;stroke:#1f77b4;stroke-width:1.5;"/>
    <path clip-path="url(#p712c08d9b9)" d="M 46.345239 158.64212 
L 51.660371 160.331832 
L 57.000362 162.029447 
L 62.365386 163.73502 
L 67.755621 165.448607 
L 73.171243 167.170266 
L 78.612434 168.900052 
L 84.079375 170.638025 
L 89.572248 172.384242 
L 95.091239 174.138762 
L 100.636535 175.901644 
L 106.208324 177.672948 
L 111.806796 179.452736 
L 117.432143 181.241067 
L 123.08456 183.038004 
L 128.764242 184.843608 
L 134.471387 186.657943 
L 140.206195 188.481073 
L 145.968868 190.31306 
L 151.759608 192.153971 
" style="fill:none;stroke:#1f77b4;stroke-width:1.5;"/>
    <path clip-path="url(#p712c08d9b9)" d="M 49.782719 155.73399 
L 55.084446 157.410144 
L 60.41087 159.094105 
L 65.762162 160.785929 
L 71.138499 162.485671 
L 76.540055 164.193386 
L 81.96701 165.90913 
L 87.419542 167.632961 
L 92.897832 169.364934 
L 98.402064 171.105106 
L 103.932422 172.853542 
L 109.489093 174.6103 
L 115.072266 176.375435 
L 120.682129 178.149007 
L 126.318875 179.931077 
L 131.982698 181.721708 
L 137.673792 183.520961 
L 143.392357 185.328899 
L 149.13859 187.145584 
L 154.912694 188.971081 
" style="fill:none;stroke:#1f77b4;stroke-width:1.5;"/>
    <path clip-path="url(#p712c08d9b9)" d="M 53.192703 152.849121 
L 58.48107 154.511879 
L 63.793972 156.182352 
L 69.13158 157.860592 
L 74.494067 159.546655 
L 79.881607 161.240595 
L 85.294376 162.942466 
L 90.732552 164.652281 
L 96.19631 166.369804 
L 101.685833 168.094938 
L 107.201317 169.829103 
L 112.742937 171.572359 
L 118.310872 173.323403 
L 123.905315 175.082442 
L 129.526456 176.849832 
L 135.174486 178.625675 
L 140.8496 180.410033 
L 146.551993 182.202968 
L 152.28186 184.004542 
L 158.039403 185.814818 
" style="fill:none;stroke:#1f77b4;stroke-width:1.5;"/>
    <path clip-path="url(#p712c08d9b9)" d="M 56.575521 149.987235 
L 61.850571 151.636758 
L 67.149997 153.293902 
L 72.473968 154.958722 
L 77.822654 156.631271 
L 83.196228 158.3116 
L 88.594862 159.999629 
L 94.018689 161.691906 
L 99.467676 163.363797 
L 104.942145 165.002538 
L 110.443106 166.722446 
L 115.970134 168.523906 
L 121.52295 170.292516 
L 127.102032 172.040922 
L 132.707632 173.793949 
L 138.339938 175.555188 
L 143.99914 177.324836 
L 149.685432 179.102954 
L 155.399007 180.889605 
L 161.140064 182.684849 
" style="fill:none;stroke:#1f77b4;stroke-width:1.5;"/>
    <path clip-path="url(#p712c08d9b9)" d="M 59.931495 147.148059 
L 65.193274 148.784503 
L 70.479269 150.428479 
L 75.789649 152.080038 
L 81.124583 153.739234 
L 86.484241 155.406074 
L 91.868744 157.07684 
L 97.277243 158.654467 
L 102.705183 159.454551 
L 108.157278 159.118982 
L 113.651531 160.820619 
L 119.171324 164.568591 
L 124.709133 167.184671 
L 130.272625 169.020611 
L 135.86273 170.763075 
L 141.479378 172.509933 
L 147.122738 174.265052 
L 152.792999 176.028537 
L 158.490356 177.800448 
L 164.215001 179.580847 
" style="fill:none;stroke:#1f77b4;stroke-width:1.5;"/>
    <path clip-path="url(#p712c08d9b9)" d="M 63.260945 144.331322 
L 68.509496 145.954843 
L 73.782107 147.585807 
L 79.078944 149.224264 
L 84.400175 150.870265 
L 89.745961 152.523443 
L 95.116068 154.149369 
L 100.502765 154.859208 
L 105.872873 148.355655 
L 111.272582 131.124752 
L 116.820957 132.774578 
L 122.362377 153.391724 
L 127.873335 163.314036 
L 133.417613 165.996503 
L 138.992071 167.756609 
L 144.593125 169.489599 
L 150.220712 171.230367 
L 155.875014 172.979399 
L 161.556224 174.736753 
L 167.264533 176.50249 
" style="fill:none;stroke:#1f77b4;stroke-width:1.5;"/>
    <path clip-path="url(#p712c08d9b9)" d="M 66.564183 141.536761 
L 71.799551 143.147511 
L 77.058823 144.765616 
L 82.342165 146.391127 
L 87.649742 148.024088 
L 92.981704 149.663285 
L 98.337159 151.204608 
L 103.69674 149.960077 
L 108.989225 126.65683 
L 114.368502 68.964767 
L 120.064358 70.505307 
L 125.589354 131.566057 
L 131.021704 158.331955 
L 136.537554 162.955846 
L 142.095973 164.7741 
L 147.681494 166.49388 
L 153.293376 168.220476 
L 158.93179 169.95523 
L 164.596926 171.698206 
L 170.288974 173.449462 
" style="fill:none;stroke:#1f77b4;stroke-width:1.5;"/>
    <path clip-path="url(#p712c08d9b9)" d="M 69.841517 138.764115 
L 75.063747 140.362244 
L 80.309728 141.967642 
L 85.579622 143.580358 
L 90.873594 145.200437 
L 96.191794 146.826666 
L 101.533499 148.355202 
L 106.883684 147.104948 
L 112.201862 123.853841 
L 117.660345 66.314055 
L 123.340309 67.841736 
L 128.756991 128.723253 
L 134.135486 155.409765 
L 139.631752 160.012441 
L 145.174729 161.816611 
L 150.744793 163.522482 
L 156.341039 165.235074 
L 161.963636 166.955726 
L 167.612771 168.684499 
L 173.288632 170.421451 
" style="fill:none;stroke:#1f77b4;stroke-width:1.5;"/>
    <path clip-path="url(#p712c08d9b9)" d="M 73.093252 136.013126 
L 78.302389 137.598782 
L 83.535124 139.191622 
L 88.791618 140.791694 
L 94.072034 142.399046 
L 99.376531 144.013312 
L 104.705036 145.600324 
L 110.054114 146.278047 
L 115.420629 139.797847 
L 120.866338 122.675971 
L 126.369716 124.28598 
L 131.77764 144.713495 
L 137.205643 154.531517 
L 142.700178 157.165435 
L 148.22864 158.883841 
L 153.783326 160.57511 
L 159.364005 162.273865 
L 164.970856 163.980586 
L 170.604062 165.695328 
L 176.26381 167.418151 
" style="fill:none;stroke:#1f77b4;stroke-width:1.5;"/>
    <path clip-path="url(#p712c08d9b9)" d="M 76.319686 133.283542 
L 81.515774 134.856871 
L 86.73531 136.437299 
L 91.978453 138.024876 
L 97.245363 139.619649 
L 102.536201 141.221621 
L 107.851111 142.827122 
L 113.190018 144.340313 
L 118.553783 145.085506 
L 123.949744 144.70922 
L 129.370844 146.343785 
L 134.800901 149.998171 
L 140.257162 152.534764 
L 145.744338 154.300789 
L 151.258023 155.974151 
L 156.797392 157.651468 
L 162.362574 159.336556 
L 167.953748 161.029513 
L 173.571098 162.730396 
L 179.214807 164.43926 
" style="fill:none;stroke:#1f77b4;stroke-width:1.5;"/>
    <path clip-path="url(#p712c08d9b9)" d="M 79.521112 130.575113 
L 84.704198 132.136258 
L 89.910582 133.70442 
L 95.140421 135.279647 
L 100.393874 136.861986 
L 105.671101 138.451484 
L 110.972264 140.048057 
L 116.297522 141.64831 
L 121.647103 143.22804 
L 127.021448 144.774707 
L 132.420293 146.400593 
L 137.843224 148.106066 
L 143.291194 149.778755 
L 148.764519 151.431076 
L 154.263172 153.087409 
L 159.787287 154.751273 
L 165.337039 156.422857 
L 170.912607 158.102217 
L 176.514172 159.789408 
L 182.141916 161.484484 
" style="fill:none;stroke:#1f77b4;stroke-width:1.5;"/>
    <path clip-path="url(#p712c08d9b9)" d="M 82.697822 127.887596 
L 87.86795 129.436698 
L 93.061229 130.992735 
L 98.277812 132.555756 
L 103.517858 134.125806 
L 108.781524 135.702934 
L 114.068972 137.287185 
L 119.380363 138.878568 
L 124.71586 140.476844 
L 130.075633 142.081912 
L 135.459839 143.695154 
L 140.868639 145.316622 
L 146.302213 146.945035 
L 151.760735 148.580591 
L 157.244372 150.223629 
L 162.753298 151.874243 
L 168.287689 153.532487 
L 173.847722 155.198413 
L 179.433574 156.872076 
L 185.045426 158.553529 
" style="fill:none;stroke:#1f77b4;stroke-width:1.5;"/>
    <path clip-path="url(#p712c08d9b9)" d="M 85.850099 125.220749 
L 91.007316 126.757946 
L 96.187535 128.301999 
L 101.390911 129.852955 
L 106.617599 131.410859 
L 111.867757 132.975758 
L 117.141542 134.5477 
L 122.439114 136.126732 
L 127.760636 137.712901 
L 133.106269 139.306255 
L 138.476177 140.906849 
L 143.870528 142.514731 
L 149.289487 144.129946 
L 154.733224 145.752545 
L 160.201908 147.38258 
L 165.695713 149.020103 
L 171.214811 150.665165 
L 176.759377 152.317818 
L 182.329588 153.978114 
L 187.925622 155.646108 
" style="fill:none;stroke:#1f77b4;stroke-width:1.5;"/>
    <path clip-path="url(#p712c08d9b9)" d="M 88.978225 122.574334 
L 94.122575 124.099763 
L 99.289783 125.63197 
L 104.48 127.171 
L 109.69338 128.716898 
L 114.930079 130.26971 
L 120.190254 131.829484 
L 125.474062 133.396266 
L 130.781664 134.970103 
L 136.113221 136.551043 
L 141.468894 138.139135 
L 146.848849 139.734426 
L 152.25325 141.336967 
L 157.682264 142.946806 
L 163.136061 144.563994 
L 168.61481 146.18858 
L 174.118683 147.820617 
L 179.647852 149.460154 
L 185.202494 151.107245 
L 190.782784 152.761941 
" style="fill:none;stroke:#1f77b4;stroke-width:1.5;"/>
    <path clip-path="url(#p712c08d9b9)" d="M 92.082476 119.948117 
L 97.214006 121.461913 
L 102.368249 122.982409 
L 107.545355 124.50965 
L 112.745477 126.043681 
L 117.968769 127.584546 
L 123.215386 129.132292 
L 128.485484 130.686966 
L 133.779222 132.248613 
L 139.096758 133.81728 
L 144.438255 135.393016 
L 149.803873 136.975868 
L 155.193778 138.565884 
L 160.608133 140.163113 
L 166.047107 141.767604 
L 171.510866 143.379407 
L 176.999582 144.998573 
L 182.513424 146.62515 
L 188.052567 148.259192 
L 193.617185 149.900748 
" style="fill:none;stroke:#1f77b4;stroke-width:1.5;"/>
    <path clip-path="url(#p712c08d9b9)" d="M 95.163124 117.341869 
L 100.28188 118.844164 
L 105.423205 120.353083 
L 110.587249 121.86867 
L 115.774162 123.390969 
L 120.984098 124.920025 
L 126.217209 126.455882 
L 131.473651 127.998587 
L 136.75358 129.548185 
L 142.057154 131.104722 
L 147.384532 132.668245 
L 152.735874 134.238802 
L 158.111343 135.81644 
L 163.511102 137.401207 
L 168.935317 138.993151 
L 174.384153 140.592321 
L 179.857779 142.198766 
L 185.356364 143.812537 
L 190.88008 145.433684 
L 196.429098 147.062256 
" style="fill:none;stroke:#1f77b4;stroke-width:1.5;"/>
    <path clip-path="url(#p712c08d9b9)" d="M 98.220438 114.755361 
L 103.326465 116.246286 
L 108.454919 117.74376 
L 113.605949 119.247826 
L 118.779704 120.758528 
L 123.976335 122.275909 
L 129.195993 123.800014 
L 134.438833 125.330887 
L 139.705008 126.868575 
L 144.994676 128.413122 
L 150.307993 129.964575 
L 155.645119 131.52298 
L 161.006214 133.088383 
L 166.39144 134.660833 
L 171.80096 136.240376 
L 177.234938 137.827061 
L 182.693542 139.420936 
L 188.176939 141.022051 
L 193.685297 142.630455 
L 199.218789 144.246197 
" style="fill:none;stroke:#1f77b4;stroke-width:1.5;"/>
    <path clip-path="url(#p712c08d9b9)" d="M 35.864465 167.508925 
L 39.386455 164.529298 
L 42.879931 161.573794 
L 46.345239 158.64212 
L 49.782719 155.73399 
L 53.192703 152.849121 
L 56.575521 149.987235 
L 59.931495 147.148059 
L 63.260945 144.331322 
L 66.564183 141.536761 
L 69.841517 138.764115 
L 73.093252 136.013126 
L 76.319686 133.283542 
L 79.521112 130.575113 
L 82.697822 127.887596 
L 85.850099 125.220749 
L 88.978225 122.574334 
L 92.082476 119.948117 
L 95.163124 117.341869 
L 98.220438 114.755361 
" style="fill:none;stroke:#1f77b4;stroke-width:1.5;"/>
    <path clip-path="url(#p712c08d9b9)" d="M 41.22007 169.240313 
L 44.728525 166.246624 
L 48.208511 163.277229 
L 51.660371 160.331832 
L 55.084446 157.410144 
L 58.48107 154.511879 
L 61.850571 151.636758 
L 65.193274 148.784503 
L 68.509496 145.954843 
L 71.799551 143.147511 
L 75.063747 140.362244 
L 78.302389 137.598782 
L 81.515774 134.856871 
L 84.704198 132.136258 
L 87.86795 129.436698 
L 91.007316 126.757946 
L 94.122575 124.099763 
L 97.214006 121.461913 
L 100.28188 118.844164 
L 103.326465 116.246286 
" style="fill:none;stroke:#1f77b4;stroke-width:1.5;"/>
    <path clip-path="url(#p712c08d9b9)" d="M 46.601031 170.979898 
L 50.095785 167.972048 
L 53.562113 164.988663 
L 57.000362 162.029447 
L 60.41087 159.094105 
L 63.793972 156.182352 
L 67.149997 153.293902 
L 70.479269 150.428479 
L 73.782107 147.585807 
L 77.058823 144.765616 
L 80.309728 141.967642 
L 83.535124 139.191622 
L 86.73531 136.437299 
L 89.910582 133.70442 
L 93.061229 130.992735 
L 96.187535 128.301999 
L 99.289783 125.63197 
L 102.368249 122.982409 
L 105.423205 120.353083 
L 108.454919 117.74376 
" style="fill:none;stroke:#1f77b4;stroke-width:1.5;"/>
    <path clip-path="url(#p712c08d9b9)" d="M 52.007529 172.727739 
L 55.488412 169.705627 
L 58.940916 166.708154 
L 62.365386 163.73502 
L 65.762162 160.785929 
L 69.13158 157.860592 
L 72.473968 154.958722 
L 75.789649 152.080038 
L 79.078944 149.224264 
L 82.342165 146.391127 
L 85.579622 143.580358 
L 88.791618 140.791694 
L 91.978453 138.024876 
L 95.140421 135.279647 
L 98.277812 132.555756 
L 101.390911 129.852955 
L 104.48 127.171 
L 107.545355 124.50965 
L 110.587249 121.86867 
L 113.605949 119.247826 
" style="fill:none;stroke:#1f77b4;stroke-width:1.5;"/>
    <path clip-path="url(#p712c08d9b9)" d="M 57.439746 174.483894 
L 60.906587 171.447418 
L 64.345097 168.435757 
L 67.755621 165.448607 
L 71.138499 162.485671 
L 74.494067 159.546655 
L 77.822654 156.631271 
L 81.124583 153.739234 
L 84.400175 150.870265 
L 87.649742 148.024088 
L 90.873594 145.200437 
L 94.072034 142.399046 
L 97.245363 139.619649 
L 100.393874 136.861986 
L 103.517858 134.125806 
L 106.617599 131.410859 
L 109.69338 128.716898 
L 112.745477 126.043681 
L 115.774162 123.390969 
L 118.779704 120.758528 
" style="fill:none;stroke:#1f77b4;stroke-width:1.5;"/>
    <path clip-path="url(#p712c08d9b9)" d="M 62.897866 176.248424 
L 66.350492 173.197481 
L 69.774836 170.17153 
L 73.171243 167.170266 
L 76.540055 164.193386 
L 79.881607 161.240595 
L 83.196228 158.3116 
L 86.484241 155.406074 
L 89.745961 152.523443 
L 92.981704 149.663285 
L 96.191794 146.826666 
L 99.376531 144.013312 
L 102.536201 141.221621 
L 105.671101 138.451484 
L 108.781524 135.702934 
L 111.867757 132.975758 
L 114.930079 130.26971 
L 117.968769 127.584546 
L 120.984098 124.920025 
L 123.976335 122.275909 
" style="fill:none;stroke:#1f77b4;stroke-width:1.5;"/>
    <path clip-path="url(#p712c08d9b9)" d="M 68.382075 178.021387 
L 71.82031 174.955875 
L 75.230315 171.915533 
L 78.612434 168.900052 
L 81.96701 165.90913 
L 85.294376 162.942466 
L 88.594862 159.999629 
L 91.868744 157.07684 
L 95.116068 154.149369 
L 98.337159 151.204608 
L 101.533499 148.355202 
L 104.705036 145.600324 
L 107.851111 142.827122 
L 110.972264 140.048057 
L 114.068972 137.287185 
L 117.141542 134.5477 
L 120.190254 131.829484 
L 123.215386 129.132292 
L 126.217209 126.455882 
L 129.195993 123.800014 
" style="fill:none;stroke:#1f77b4;stroke-width:1.5;"/>
    <path clip-path="url(#p712c08d9b9)" d="M 73.89256 179.802846 
L 77.316228 176.722658 
L 80.711717 173.667822 
L 84.079375 170.638025 
L 87.419542 167.632961 
L 90.732552 164.652281 
L 94.018689 161.691906 
L 97.277243 158.654467 
L 100.502765 154.859208 
L 103.69674 149.960077 
L 106.883684 147.104948 
L 110.054114 146.278047 
L 113.190018 144.340313 
L 116.297522 141.64831 
L 119.380363 138.878568 
L 122.439114 136.126732 
L 125.474062 133.396266 
L 128.485484 130.686966 
L 131.473651 127.998587 
L 134.438833 125.330887 
" style="fill:none;stroke:#1f77b4;stroke-width:1.5;"/>
    <path clip-path="url(#p712c08d9b9)" d="M 79.429511 181.59286 
L 82.838431 178.497892 
L 86.219228 175.428458 
L 89.572248 172.384242 
L 92.897832 169.364934 
L 96.19631 166.369804 
L 99.467676 163.363797 
L 102.705183 159.454551 
L 105.872873 148.355655 
L 108.989225 126.65683 
L 112.201862 123.853841 
L 115.420629 139.797847 
L 118.553783 145.085506 
L 121.647103 143.22804 
L 124.71586 140.476844 
L 127.760636 137.712901 
L 130.781664 134.970103 
L 133.779222 132.248613 
L 136.75358 129.548185 
L 139.705008 126.868575 
" style="fill:none;stroke:#1f77b4;stroke-width:1.5;"/>
    <path clip-path="url(#p712c08d9b9)" d="M 84.993118 183.391492 
L 88.38711 180.281637 
L 91.753035 177.197499 
L 95.091239 174.138762 
L 98.402064 171.105106 
L 101.685833 168.094938 
L 104.942145 165.002538 
L 108.157278 159.118982 
L 111.272582 131.124752 
L 114.368502 68.964767 
L 117.660345 66.314055 
L 120.866338 122.675971 
L 123.949744 144.70922 
L 127.021448 144.774707 
L 130.075633 142.081912 
L 133.106269 139.306255 
L 136.113221 136.551043 
L 139.096758 133.81728 
L 142.057154 131.104722 
L 144.994676 128.413122 
" style="fill:none;stroke:#1f77b4;stroke-width:1.5;"/>
    <path clip-path="url(#p712c08d9b9)" d="M 90.583575 185.198804 
L 93.962455 182.073954 
L 97.313326 178.975008 
L 100.636535 175.901644 
L 103.932422 172.853542 
L 107.201317 169.829103 
L 110.443106 166.722446 
L 113.651531 160.820619 
L 116.820957 132.774578 
L 120.064358 70.505307 
L 123.340309 67.841736 
L 126.369716 124.28598 
L 129.370844 146.343785 
L 132.420293 146.400593 
L 135.459839 143.695154 
L 138.476177 140.906849 
L 141.468894 138.139135 
L 144.438255 135.393016 
L 147.384532 132.668245 
L 150.307993 129.964575 
" style="fill:none;stroke:#1f77b4;stroke-width:1.5;"/>
    <path clip-path="url(#p712c08d9b9)" d="M 96.201077 187.014859 
L 99.564659 183.874906 
L 102.900293 180.761044 
L 106.208324 177.672948 
L 109.489093 174.6103 
L 112.742937 171.572359 
L 115.970134 168.523906 
L 119.171324 164.568591 
L 122.362377 153.391724 
L 125.589354 131.566057 
L 128.756991 128.723253 
L 131.77764 144.713495 
L 134.800901 149.998171 
L 137.843224 148.106066 
L 140.868639 145.316622 
L 143.870528 142.514731 
L 146.848849 139.734426 
L 149.803873 136.975868 
L 152.735874 134.238802 
L 155.645119 131.52298 
" style="fill:none;stroke:#1f77b4;stroke-width:1.5;"/>
    <path clip-path="url(#p712c08d9b9)" d="M 101.845819 188.839721 
L 105.193916 185.684554 
L 108.514126 182.555668 
L 111.806796 179.452736 
L 115.072266 176.375435 
L 118.310872 173.323403 
L 121.52295 170.292516 
L 124.709133 167.184671 
L 127.873335 163.314036 
L 131.021704 158.331955 
L 134.135486 155.409765 
L 137.205643 154.531517 
L 140.257162 152.534764 
L 143.291194 149.778755 
L 146.302213 146.945035 
L 149.289487 144.129946 
L 152.25325 141.336967 
L 155.193778 138.565884 
L 158.111343 135.81644 
L 161.006214 133.088383 
" style="fill:none;stroke:#1f77b4;stroke-width:1.5;"/>
    <path clip-path="url(#p712c08d9b9)" d="M 107.518002 190.673454 
L 110.850424 187.502963 
L 114.155022 184.358944 
L 117.432143 181.241067 
L 120.682129 178.149007 
L 123.905315 175.082442 
L 127.102032 172.040922 
L 130.272625 169.020611 
L 133.417613 165.996503 
L 136.537554 162.955846 
L 139.631752 160.012441 
L 142.700178 157.165435 
L 145.744338 154.300789 
L 148.764519 151.431076 
L 151.760735 148.580591 
L 154.733224 145.752545 
L 157.682264 142.946806 
L 160.608133 140.163113 
L 163.511102 137.401207 
L 166.39144 134.660833 
" style="fill:none;stroke:#1f77b4;stroke-width:1.5;"/>
    <path clip-path="url(#p712c08d9b9)" d="M 113.217824 192.516122 
L 116.534379 189.330196 
L 119.823175 186.170934 
L 123.08456 183.038004 
L 126.318875 179.931077 
L 129.526456 176.849832 
L 132.707632 173.793949 
L 135.86273 170.763075 
L 138.992071 167.756609 
L 142.095973 164.7741 
L 145.174729 161.816611 
L 148.22864 158.883841 
L 151.258023 155.974151 
L 154.263172 153.087409 
L 157.244372 150.223629 
L 160.201908 147.38258 
L 163.136061 144.563994 
L 166.047107 141.767604 
L 168.935317 138.993151 
L 171.80096 136.240376 
" style="fill:none;stroke:#1f77b4;stroke-width:1.5;"/>
    <path clip-path="url(#p712c08d9b9)" d="M 118.94549 194.367792 
L 122.245982 191.166316 
L 125.518784 187.9917 
L 128.764242 184.843608 
L 131.982698 181.721708 
L 135.174486 178.625675 
L 138.339938 175.555188 
L 141.479378 172.509933 
L 144.593125 169.489599 
L 147.681494 166.49388 
L 150.744793 163.522482 
L 153.783326 160.57511 
L 156.797392 157.651468 
L 159.787287 154.751273 
L 162.753298 151.874243 
L 165.695713 149.020103 
L 168.61481 146.18858 
L 171.510866 143.379407 
L 174.384153 140.592321 
L 177.234938 137.827061 
" style="fill:none;stroke:#1f77b4;stroke-width:1.5;"/>
    <path clip-path="url(#p712c08d9b9)" d="M 124.701203 196.228529 
L 127.985437 193.01139 
L 131.242049 189.821308 
L 134.471387 186.657943 
L 137.673792 183.520961 
L 140.8496 180.410033 
L 143.99914 177.324836 
L 147.122738 174.265052 
L 150.220712 171.230367 
L 153.293376 168.220476 
L 156.341039 165.235074 
L 159.364005 162.273865 
L 162.362574 159.336556 
L 165.337039 156.422857 
L 168.287689 153.532487 
L 171.214811 150.665165 
L 174.118683 147.820617 
L 176.999582 144.998573 
L 179.857779 142.198766 
L 182.693542 139.420936 
" style="fill:none;stroke:#1f77b4;stroke-width:1.5;"/>
    <path clip-path="url(#p712c08d9b9)" d="M 130.48517 198.0984 
L 133.752946 194.865483 
L 136.993172 191.659821 
L 140.206195 188.481073 
L 143.392357 185.328899 
L 146.551993 182.202968 
L 149.685432 179.102954 
L 152.792999 176.028537 
L 155.875014 172.979399 
L 158.93179 169.95523 
L 161.963636 166.955726 
L 164.970856 163.980586 
L 167.953748 161.029513 
L 170.912607 158.102217 
L 173.847722 155.198413 
L 176.759377 152.317818 
L 179.647852 149.460154 
L 182.513424 146.62515 
L 185.356364 143.812537 
L 188.176939 141.022051 
" style="fill:none;stroke:#1f77b4;stroke-width:1.5;"/>
    <path clip-path="url(#p712c08d9b9)" d="M 136.2976 199.977472 
L 139.548716 196.728661 
L 142.772356 193.507305 
L 145.968868 190.31306 
L 149.13859 187.145584 
L 152.28186 184.004542 
L 155.399007 180.889605 
L 158.490356 177.800448 
L 161.556224 174.736753 
L 164.596926 171.698206 
L 167.612771 168.684499 
L 170.604062 165.695328 
L 173.571098 162.730396 
L 176.514172 159.789408 
L 179.433574 156.872076 
L 182.329588 153.978114 
L 185.202494 151.107245 
L 188.052567 148.259192 
L 190.88008 145.433684 
L 193.685297 142.630455 
" style="fill:none;stroke:#1f77b4;stroke-width:1.5;"/>
    <path clip-path="url(#p712c08d9b9)" d="M 142.138703 201.865814 
L 145.372956 198.60099 
L 148.579809 195.363826 
L 151.759608 192.153971 
L 154.912694 188.971081 
L 158.039403 185.814818 
L 161.140064 182.684849 
L 164.215001 179.580847 
L 167.264533 176.50249 
L 170.288974 173.449462 
L 173.288632 170.421451 
L 176.26381 167.418151 
L 179.214807 164.43926 
L 182.141916 161.484484 
L 185.045426 158.553529 
L 187.925622 155.646108 
L 190.782784 152.761941 
L 193.617185 149.900748 
L 196.429098 147.062256 
L 199.218789 144.246197 
" style="fill:none;stroke:#1f77b4;stroke-width:1.5;"/>
   </g>
  </g>
 </g>
 <defs>
  <clipPath id="p712c08d9b9">
   <rect height="217.44" width="217.44" x="7.2" y="7.2"/>
  </clipPath>
 </defs>
</svg>
