<?xml version="1.0" encoding="utf-8" standalone="no"?>
<!DOCTYPE svg PUBLIC "-//W3C//DTD SVG 1.1//EN"
  "http://www.w3.org/Graphics/SVG/1.1/DTD/svg11.dtd">
<!-- Created with matplotlib (https://matplotlib.org/) -->
<svg height="248.518125pt" version="1.1" viewBox="0 0 377.304687 248.518125" width="377.304687pt" xmlns="http://www.w3.org/2000/svg" xmlns:xlink="http://www.w3.org/1999/xlink">
 <metadata>
  <rdf:RDF xmlns:cc="http://creativecommons.org/ns#" xmlns:dc="http://purl.org/dc/elements/1.1/" xmlns:rdf="http://www.w3.org/1999/02/22-rdf-syntax-ns#">
   <cc:Work>
    <dc:type rdf:resource="http://purl.org/dc/dcmitype/StillImage"/>
    <dc:date>2021-02-16T23:23:56.029765</dc:date>
    <dc:format>image/svg+xml</dc:format>
    <dc:creator>
     <cc:Agent>
      <dc:title>Matplotlib v3.3.2, https://matplotlib.org/</dc:title>
     </cc:Agent>
    </dc:creator>
   </cc:Work>
  </rdf:RDF>
 </metadata>
 <defs>
  <style type="text/css">*{stroke-linecap:butt;stroke-linejoin:round;}</style>
 </defs>
 <g id="figure_1">
  <g id="patch_1">
   <path d="M 0 248.518125 
L 377.304687 248.518125 
L 377.304687 0 
L 0 0 
z
" style="fill:none;"/>
  </g>
  <g id="axes_1">
   <g id="patch_2">
    <path d="M 35.304688 224.64 
L 370.104688 224.64 
L 370.104688 7.2 
L 35.304688 7.2 
z
" style="fill:#ffffff;"/>
   </g>
   <g id="matplotlib.axis_1">
    <g id="xtick_1">
     <g id="line2d_1">
      <defs>
       <path d="M 0 0 
L 0 3.5 
" id="m2532fbdb24" style="stroke:#000000;stroke-width:0.8;"/>
      </defs>
      <g>
       <use style="stroke:#000000;stroke-width:0.8;" x="50.522869" xlink:href="#m2532fbdb24" y="224.64"/>
      </g>
     </g>
     <g id="text_1">
      <!-- 0 -->
      <g transform="translate(47.341619 239.238437)scale(0.1 -0.1)">
       <defs>
        <path d="M 31.78125 66.40625 
Q 24.171875 66.40625 20.328125 58.90625 
Q 16.5 51.421875 16.5 36.375 
Q 16.5 21.390625 20.328125 13.890625 
Q 24.171875 6.390625 31.78125 6.390625 
Q 39.453125 6.390625 43.28125 13.890625 
Q 47.125 21.390625 47.125 36.375 
Q 47.125 51.421875 43.28125 58.90625 
Q 39.453125 66.40625 31.78125 66.40625 
z
M 31.78125 74.21875 
Q 44.046875 74.21875 50.515625 64.515625 
Q 56.984375 54.828125 56.984375 36.375 
Q 56.984375 17.96875 50.515625 8.265625 
Q 44.046875 -1.421875 31.78125 -1.421875 
Q 19.53125 -1.421875 13.0625 8.265625 
Q 6.59375 17.96875 6.59375 36.375 
Q 6.59375 54.828125 13.0625 64.515625 
Q 19.53125 74.21875 31.78125 74.21875 
z
" id="DejaVuSans-48"/>
       </defs>
       <use xlink:href="#DejaVuSans-48"/>
      </g>
     </g>
    </g>
    <g id="xtick_2">
     <g id="line2d_2">
      <g>
       <use style="stroke:#000000;stroke-width:0.8;" x="112.637897" xlink:href="#m2532fbdb24" y="224.64"/>
      </g>
     </g>
     <g id="text_2">
      <!-- 10 -->
      <g transform="translate(106.275397 239.238437)scale(0.1 -0.1)">
       <defs>
        <path d="M 12.40625 8.296875 
L 28.515625 8.296875 
L 28.515625 63.921875 
L 10.984375 60.40625 
L 10.984375 69.390625 
L 28.421875 72.90625 
L 38.28125 72.90625 
L 38.28125 8.296875 
L 54.390625 8.296875 
L 54.390625 0 
L 12.40625 0 
z
" id="DejaVuSans-49"/>
       </defs>
       <use xlink:href="#DejaVuSans-49"/>
       <use x="63.623047" xlink:href="#DejaVuSans-48"/>
      </g>
     </g>
    </g>
    <g id="xtick_3">
     <g id="line2d_3">
      <g>
       <use style="stroke:#000000;stroke-width:0.8;" x="174.752925" xlink:href="#m2532fbdb24" y="224.64"/>
      </g>
     </g>
     <g id="text_3">
      <!-- 20 -->
      <g transform="translate(168.390425 239.238437)scale(0.1 -0.1)">
       <defs>
        <path d="M 19.1875 8.296875 
L 53.609375 8.296875 
L 53.609375 0 
L 7.328125 0 
L 7.328125 8.296875 
Q 12.9375 14.109375 22.625 23.890625 
Q 32.328125 33.6875 34.8125 36.53125 
Q 39.546875 41.84375 41.421875 45.53125 
Q 43.3125 49.21875 43.3125 52.78125 
Q 43.3125 58.59375 39.234375 62.25 
Q 35.15625 65.921875 28.609375 65.921875 
Q 23.96875 65.921875 18.8125 64.3125 
Q 13.671875 62.703125 7.8125 59.421875 
L 7.8125 69.390625 
Q 13.765625 71.78125 18.9375 73 
Q 24.125 74.21875 28.421875 74.21875 
Q 39.75 74.21875 46.484375 68.546875 
Q 53.21875 62.890625 53.21875 53.421875 
Q 53.21875 48.921875 51.53125 44.890625 
Q 49.859375 40.875 45.40625 35.40625 
Q 44.1875 33.984375 37.640625 27.21875 
Q 31.109375 20.453125 19.1875 8.296875 
z
" id="DejaVuSans-50"/>
       </defs>
       <use xlink:href="#DejaVuSans-50"/>
       <use x="63.623047" xlink:href="#DejaVuSans-48"/>
      </g>
     </g>
    </g>
    <g id="xtick_4">
     <g id="line2d_4">
      <g>
       <use style="stroke:#000000;stroke-width:0.8;" x="236.867953" xlink:href="#m2532fbdb24" y="224.64"/>
      </g>
     </g>
     <g id="text_4">
      <!-- 30 -->
      <g transform="translate(230.505453 239.238437)scale(0.1 -0.1)">
       <defs>
        <path d="M 40.578125 39.3125 
Q 47.65625 37.796875 51.625 33 
Q 55.609375 28.21875 55.609375 21.1875 
Q 55.609375 10.40625 48.1875 4.484375 
Q 40.765625 -1.421875 27.09375 -1.421875 
Q 22.515625 -1.421875 17.65625 -0.515625 
Q 12.796875 0.390625 7.625 2.203125 
L 7.625 11.71875 
Q 11.71875 9.328125 16.59375 8.109375 
Q 21.484375 6.890625 26.8125 6.890625 
Q 36.078125 6.890625 40.9375 10.546875 
Q 45.796875 14.203125 45.796875 21.1875 
Q 45.796875 27.640625 41.28125 31.265625 
Q 36.765625 34.90625 28.71875 34.90625 
L 20.21875 34.90625 
L 20.21875 43.015625 
L 29.109375 43.015625 
Q 36.375 43.015625 40.234375 45.921875 
Q 44.09375 48.828125 44.09375 54.296875 
Q 44.09375 59.90625 40.109375 62.90625 
Q 36.140625 65.921875 28.71875 65.921875 
Q 24.65625 65.921875 20.015625 65.03125 
Q 15.375 64.15625 9.8125 62.3125 
L 9.8125 71.09375 
Q 15.4375 72.65625 20.34375 73.4375 
Q 25.25 74.21875 29.59375 74.21875 
Q 40.828125 74.21875 47.359375 69.109375 
Q 53.90625 64.015625 53.90625 55.328125 
Q 53.90625 49.265625 50.4375 45.09375 
Q 46.96875 40.921875 40.578125 39.3125 
z
" id="DejaVuSans-51"/>
       </defs>
       <use xlink:href="#DejaVuSans-51"/>
       <use x="63.623047" xlink:href="#DejaVuSans-48"/>
      </g>
     </g>
    </g>
    <g id="xtick_5">
     <g id="line2d_5">
      <g>
       <use style="stroke:#000000;stroke-width:0.8;" x="298.982981" xlink:href="#m2532fbdb24" y="224.64"/>
      </g>
     </g>
     <g id="text_5">
      <!-- 40 -->
      <g transform="translate(292.620481 239.238437)scale(0.1 -0.1)">
       <defs>
        <path d="M 37.796875 64.3125 
L 12.890625 25.390625 
L 37.796875 25.390625 
z
M 35.203125 72.90625 
L 47.609375 72.90625 
L 47.609375 25.390625 
L 58.015625 25.390625 
L 58.015625 17.1875 
L 47.609375 17.1875 
L 47.609375 0 
L 37.796875 0 
L 37.796875 17.1875 
L 4.890625 17.1875 
L 4.890625 26.703125 
z
" id="DejaVuSans-52"/>
       </defs>
       <use xlink:href="#DejaVuSans-52"/>
       <use x="63.623047" xlink:href="#DejaVuSans-48"/>
      </g>
     </g>
    </g>
    <g id="xtick_6">
     <g id="line2d_6">
      <g>
       <use style="stroke:#000000;stroke-width:0.8;" x="361.098008" xlink:href="#m2532fbdb24" y="224.64"/>
      </g>
     </g>
     <g id="text_6">
      <!-- 50 -->
      <g transform="translate(354.735508 239.238437)scale(0.1 -0.1)">
       <defs>
        <path d="M 10.796875 72.90625 
L 49.515625 72.90625 
L 49.515625 64.59375 
L 19.828125 64.59375 
L 19.828125 46.734375 
Q 21.96875 47.46875 24.109375 47.828125 
Q 26.265625 48.1875 28.421875 48.1875 
Q 40.625 48.1875 47.75 41.5 
Q 54.890625 34.8125 54.890625 23.390625 
Q 54.890625 11.625 47.5625 5.09375 
Q 40.234375 -1.421875 26.90625 -1.421875 
Q 22.3125 -1.421875 17.546875 -0.640625 
Q 12.796875 0.140625 7.71875 1.703125 
L 7.71875 11.625 
Q 12.109375 9.234375 16.796875 8.0625 
Q 21.484375 6.890625 26.703125 6.890625 
Q 35.15625 6.890625 40.078125 11.328125 
Q 45.015625 15.765625 45.015625 23.390625 
Q 45.015625 31 40.078125 35.4375 
Q 35.15625 39.890625 26.703125 39.890625 
Q 22.75 39.890625 18.8125 39.015625 
Q 14.890625 38.140625 10.796875 36.28125 
z
" id="DejaVuSans-53"/>
       </defs>
       <use xlink:href="#DejaVuSans-53"/>
       <use x="63.623047" xlink:href="#DejaVuSans-48"/>
      </g>
     </g>
    </g>
   </g>
   <g id="matplotlib.axis_2">
    <g id="ytick_1">
     <g id="line2d_7">
      <defs>
       <path d="M 0 0 
L -3.5 0 
" id="mb791a08f89" style="stroke:#000000;stroke-width:0.8;"/>
      </defs>
      <g>
       <use style="stroke:#000000;stroke-width:0.8;" x="35.304688" xlink:href="#mb791a08f89" y="208.203677"/>
      </g>
     </g>
     <g id="text_7">
      <!-- −25 -->
      <g transform="translate(7.2 212.002895)scale(0.1 -0.1)">
       <defs>
        <path d="M 10.59375 35.5 
L 73.1875 35.5 
L 73.1875 27.203125 
L 10.59375 27.203125 
z
" id="DejaVuSans-8722"/>
       </defs>
       <use xlink:href="#DejaVuSans-8722"/>
       <use x="83.789062" xlink:href="#DejaVuSans-50"/>
       <use x="147.412109" xlink:href="#DejaVuSans-53"/>
      </g>
     </g>
    </g>
    <g id="ytick_2">
     <g id="line2d_8">
      <g>
       <use style="stroke:#000000;stroke-width:0.8;" x="35.304688" xlink:href="#mb791a08f89" y="180.900814"/>
      </g>
     </g>
     <g id="text_8">
      <!-- −20 -->
      <g transform="translate(7.2 184.700032)scale(0.1 -0.1)">
       <use xlink:href="#DejaVuSans-8722"/>
       <use x="83.789062" xlink:href="#DejaVuSans-50"/>
       <use x="147.412109" xlink:href="#DejaVuSans-48"/>
      </g>
     </g>
    </g>
    <g id="ytick_3">
     <g id="line2d_9">
      <g>
       <use style="stroke:#000000;stroke-width:0.8;" x="35.304688" xlink:href="#mb791a08f89" y="153.597951"/>
      </g>
     </g>
     <g id="text_9">
      <!-- −15 -->
      <g transform="translate(7.2 157.39717)scale(0.1 -0.1)">
       <use xlink:href="#DejaVuSans-8722"/>
       <use x="83.789062" xlink:href="#DejaVuSans-49"/>
       <use x="147.412109" xlink:href="#DejaVuSans-53"/>
      </g>
     </g>
    </g>
    <g id="ytick_4">
     <g id="line2d_10">
      <g>
       <use style="stroke:#000000;stroke-width:0.8;" x="35.304688" xlink:href="#mb791a08f89" y="126.295088"/>
      </g>
     </g>
     <g id="text_10">
      <!-- −10 -->
      <g transform="translate(7.2 130.094307)scale(0.1 -0.1)">
       <use xlink:href="#DejaVuSans-8722"/>
       <use x="83.789062" xlink:href="#DejaVuSans-49"/>
       <use x="147.412109" xlink:href="#DejaVuSans-48"/>
      </g>
     </g>
    </g>
    <g id="ytick_5">
     <g id="line2d_11">
      <g>
       <use style="stroke:#000000;stroke-width:0.8;" x="35.304688" xlink:href="#mb791a08f89" y="98.992225"/>
      </g>
     </g>
     <g id="text_11">
      <!-- −5 -->
      <g transform="translate(13.5625 102.791444)scale(0.1 -0.1)">
       <use xlink:href="#DejaVuSans-8722"/>
       <use x="83.789062" xlink:href="#DejaVuSans-53"/>
      </g>
     </g>
    </g>
    <g id="ytick_6">
     <g id="line2d_12">
      <g>
       <use style="stroke:#000000;stroke-width:0.8;" x="35.304688" xlink:href="#mb791a08f89" y="71.689362"/>
      </g>
     </g>
     <g id="text_12">
      <!-- 0 -->
      <g transform="translate(21.942188 75.488581)scale(0.1 -0.1)">
       <use xlink:href="#DejaVuSans-48"/>
      </g>
     </g>
    </g>
    <g id="ytick_7">
     <g id="line2d_13">
      <g>
       <use style="stroke:#000000;stroke-width:0.8;" x="35.304688" xlink:href="#mb791a08f89" y="44.386499"/>
      </g>
     </g>
     <g id="text_13">
      <!-- 5 -->
      <g transform="translate(21.942188 48.185718)scale(0.1 -0.1)">
       <use xlink:href="#DejaVuSans-53"/>
      </g>
     </g>
    </g>
    <g id="ytick_8">
     <g id="line2d_14">
      <g>
       <use style="stroke:#000000;stroke-width:0.8;" x="35.304688" xlink:href="#mb791a08f89" y="17.083636"/>
      </g>
     </g>
     <g id="text_14">
      <!-- 10 -->
      <g transform="translate(15.579688 20.882855)scale(0.1 -0.1)">
       <use xlink:href="#DejaVuSans-49"/>
       <use x="63.623047" xlink:href="#DejaVuSans-48"/>
      </g>
     </g>
    </g>
   </g>
   <g id="line2d_15">
    <path clip-path="url(#p775c8e8eba)" d="M 50.522869 89.163194 
L 56.734372 47.662843 
L 62.945875 43.294385 
L 69.157378 47.662843 
L 75.36888 49.847072 
L 81.580383 40.018041 
L 87.791886 37.833812 
L 94.003389 43.294385 
L 100.214892 33.465354 
L 106.426394 36.741698 
L 112.637897 33.465354 
L 118.8494 33.465354 
L 125.060903 33.465354 
L 131.272405 33.465354 
L 137.483908 33.465354 
L 143.695411 33.465354 
L 149.906914 33.465354 
L 156.118417 33.465354 
L 162.329919 33.465354 
L 168.541422 33.465354 
L 174.752925 33.465354 
L 180.964428 33.465354 
L 187.175931 33.465354 
L 193.387433 33.465354 
L 199.598936 33.465354 
L 205.810439 33.465354 
L 212.021942 33.465354 
L 218.233444 33.465354 
L 224.444947 33.465354 
L 230.65645 33.465354 
L 236.867953 33.465354 
L 243.079456 33.465354 
L 249.290958 33.465354 
L 255.502461 33.465354 
L 261.713964 33.465354 
L 267.925467 33.465354 
L 274.13697 33.465354 
L 280.348472 33.465354 
L 286.559975 33.465354 
L 292.771478 33.465354 
L 298.982981 33.465354 
L 305.194483 33.465354 
L 311.405986 33.465354 
L 317.617489 33.465354 
L 323.828992 33.465354 
L 330.040495 33.465354 
L 336.251997 33.465354 
L 342.4635 33.465354 
L 348.675003 33.465354 
L 354.886506 33.465354 
" style="fill:none;stroke:#1f77b4;stroke-linecap:square;stroke-width:1.5;"/>
   </g>
   <g id="line2d_16">
    <path clip-path="url(#p775c8e8eba)" d="M 50.522869 100.08434 
L 56.734372 50.939186 
L 62.945875 46.570728 
L 69.157378 23.636323 
L 75.36888 23.636323 
L 81.580383 22.544209 
L 87.791886 22.544209 
L 94.003389 22.544209 
L 100.214892 22.544209 
L 106.426394 22.544209 
L 112.637897 22.544209 
L 118.8494 22.544209 
L 125.060903 22.544209 
L 131.272405 22.544209 
L 137.483908 22.544209 
L 143.695411 22.544209 
L 149.906914 22.544209 
L 156.118417 26.912667 
L 162.329919 22.544209 
L 168.541422 22.544209 
L 174.752925 22.544209 
L 180.964428 28.004782 
L 187.175931 22.544209 
L 193.387433 22.544209 
L 199.598936 22.544209 
L 205.810439 22.544209 
L 212.021942 22.544209 
L 218.233444 24.728438 
L 224.444947 22.544209 
L 230.65645 23.636323 
L 236.867953 22.544209 
L 243.079456 22.544209 
L 249.290958 22.544209 
L 255.502461 22.544209 
L 261.713964 22.544209 
L 267.925467 22.544209 
L 274.13697 22.544209 
L 280.348472 22.544209 
L 286.559975 22.544209 
L 292.771478 22.544209 
L 298.982981 22.544209 
L 305.194483 22.544209 
L 311.405986 22.544209 
L 317.617489 22.544209 
L 323.828992 22.544209 
L 330.040495 22.544209 
L 336.251997 22.544209 
L 342.4635 22.544209 
L 348.675003 22.544209 
L 354.886506 22.544209 
" style="fill:none;stroke:#ff7f0e;stroke-linecap:square;stroke-width:1.5;"/>
   </g>
   <g id="line2d_17">
    <path clip-path="url(#p775c8e8eba)" d="M 50.522869 130.663546 
L 56.734372 23.636323 
L 62.945875 19.267865 
L 69.157378 25.820552 
L 75.36888 18.175751 
L 81.580383 20.35998 
L 87.791886 18.175751 
L 94.003389 17.083636 
L 100.214892 20.35998 
L 106.426394 17.083636 
L 112.637897 18.175751 
L 118.8494 17.083636 
L 125.060903 17.083636 
L 131.272405 17.083636 
L 137.483908 17.083636 
L 143.695411 17.083636 
L 149.906914 17.083636 
L 156.118417 22.544209 
L 162.329919 17.083636 
L 168.541422 17.083636 
L 174.752925 18.175751 
L 180.964428 18.175751 
L 187.175931 17.083636 
L 193.387433 17.083636 
L 199.598936 17.083636 
L 205.810439 17.083636 
L 212.021942 17.083636 
L 218.233444 17.083636 
L 224.444947 17.083636 
L 230.65645 17.083636 
L 236.867953 17.083636 
L 243.079456 17.083636 
L 249.290958 17.083636 
L 255.502461 17.083636 
L 261.713964 17.083636 
L 267.925467 17.083636 
L 274.13697 17.083636 
L 280.348472 17.083636 
L 286.559975 17.083636 
L 292.771478 18.175751 
L 298.982981 19.267865 
L 305.194483 18.175751 
L 311.405986 17.083636 
L 317.617489 17.083636 
L 323.828992 17.083636 
L 330.040495 17.083636 
L 336.251997 17.083636 
L 342.4635 20.35998 
L 348.675003 17.083636 
L 354.886506 17.083636 
" style="fill:none;stroke:#2ca02c;stroke-linecap:square;stroke-width:1.5;"/>
   </g>
   <g id="line2d_18">
    <path clip-path="url(#p775c8e8eba)" d="M 50.522869 147.045264 
L 56.734372 43.294385 
L 62.945875 33.465354 
L 69.157378 24.728438 
L 75.36888 31.281125 
L 81.580383 21.452094 
L 87.791886 17.083636 
L 94.003389 19.267865 
L 100.214892 22.544209 
L 106.426394 17.083636 
L 112.637897 19.267865 
L 118.8494 17.083636 
L 125.060903 17.083636 
L 131.272405 24.728438 
L 137.483908 17.083636 
L 143.695411 17.083636 
L 149.906914 17.083636 
L 156.118417 19.267865 
L 162.329919 17.083636 
L 168.541422 18.175751 
L 174.752925 17.083636 
L 180.964428 17.083636 
L 187.175931 21.452094 
L 193.387433 18.175751 
L 199.598936 17.083636 
L 205.810439 17.083636 
L 212.021942 20.35998 
L 218.233444 17.083636 
L 224.444947 20.35998 
L 230.65645 17.083636 
L 236.867953 19.267865 
L 243.079456 17.083636 
L 249.290958 17.083636 
L 255.502461 17.083636 
L 261.713964 17.083636 
L 267.925467 17.083636 
L 274.13697 17.083636 
L 280.348472 17.083636 
L 286.559975 17.083636 
L 292.771478 17.083636 
L 298.982981 17.083636 
L 305.194483 17.083636 
L 311.405986 17.083636 
L 317.617489 20.35998 
L 323.828992 17.083636 
L 330.040495 17.083636 
L 336.251997 17.083636 
L 342.4635 17.083636 
L 348.675003 17.083636 
L 354.886506 17.083636 
" style="fill:none;stroke:#d62728;stroke-linecap:square;stroke-width:1.5;"/>
   </g>
   <g id="line2d_19">
    <path clip-path="url(#p775c8e8eba)" d="M 50.522869 214.756364 
L 56.734372 55.307644 
L 62.945875 45.478614 
L 69.157378 22.544209 
L 75.36888 34.557469 
L 81.580383 28.004782 
L 87.791886 22.544209 
L 94.003389 31.281125 
L 100.214892 43.294385 
L 106.426394 28.004782 
L 112.637897 40.018041 
L 118.8494 21.452094 
L 125.060903 31.281125 
L 131.272405 22.544209 
L 137.483908 23.636323 
L 143.695411 18.175751 
L 149.906914 25.820552 
L 156.118417 23.636323 
L 162.329919 25.820552 
L 168.541422 24.728438 
L 174.752925 21.452094 
L 180.964428 20.35998 
L 187.175931 26.912667 
L 193.387433 25.820552 
L 199.598936 17.083636 
L 205.810439 22.544209 
L 212.021942 21.452094 
L 218.233444 36.741698 
L 224.444947 21.452094 
L 230.65645 23.636323 
L 236.867953 22.544209 
L 243.079456 21.452094 
L 249.290958 30.189011 
L 255.502461 21.452094 
L 261.713964 22.544209 
L 267.925467 20.35998 
L 274.13697 17.083636 
L 280.348472 37.833812 
L 286.559975 21.452094 
L 292.771478 17.083636 
L 298.982981 19.267865 
L 305.194483 30.189011 
L 311.405986 20.35998 
L 317.617489 22.544209 
L 323.828992 19.267865 
L 330.040495 17.083636 
L 336.251997 21.452094 
L 342.4635 18.175751 
L 348.675003 20.35998 
L 354.886506 23.636323 
" style="fill:none;stroke:#9467bd;stroke-linecap:square;stroke-width:1.5;"/>
   </g>
   <g id="patch_3">
    <path d="M 35.304688 224.64 
L 35.304688 7.2 
" style="fill:none;stroke:#000000;stroke-linecap:square;stroke-linejoin:miter;stroke-width:0.8;"/>
   </g>
   <g id="patch_4">
    <path d="M 370.104688 224.64 
L 370.104688 7.2 
" style="fill:none;stroke:#000000;stroke-linecap:square;stroke-linejoin:miter;stroke-width:0.8;"/>
   </g>
   <g id="patch_5">
    <path d="M 35.304688 224.64 
L 370.104688 224.64 
" style="fill:none;stroke:#000000;stroke-linecap:square;stroke-linejoin:miter;stroke-width:0.8;"/>
   </g>
   <g id="patch_6">
    <path d="M 35.304688 7.2 
L 370.104688 7.2 
" style="fill:none;stroke:#000000;stroke-linecap:square;stroke-linejoin:miter;stroke-width:0.8;"/>
   </g>
   <g id="legend_1">
    <g id="patch_7">
     <path d="M 308.839063 219.64 
L 363.104688 219.64 
Q 365.104688 219.64 365.104688 217.64 
L 365.104688 145.249375 
Q 365.104688 143.249375 363.104688 143.249375 
L 308.839063 143.249375 
Q 306.839063 143.249375 306.839063 145.249375 
L 306.839063 217.64 
Q 306.839063 219.64 308.839063 219.64 
z
" style="fill:#ffffff;opacity:0.8;stroke:#cccccc;stroke-linejoin:miter;"/>
    </g>
    <g id="line2d_20">
     <path d="M 310.839063 151.347812 
L 330.839063 151.347812 
" style="fill:none;stroke:#1f77b4;stroke-linecap:square;stroke-width:1.5;"/>
    </g>
    <g id="line2d_21"/>
    <g id="text_15">
     <!-- 0 -->
     <g transform="translate(338.839063 154.847812)scale(0.1 -0.1)">
      <use xlink:href="#DejaVuSans-48"/>
     </g>
    </g>
    <g id="line2d_22">
     <path d="M 310.839063 166.025937 
L 330.839063 166.025937 
" style="fill:none;stroke:#ff7f0e;stroke-linecap:square;stroke-width:1.5;"/>
    </g>
    <g id="line2d_23"/>
    <g id="text_16">
     <!-- 0.1 -->
     <g transform="translate(338.839063 169.525937)scale(0.1 -0.1)">
      <defs>
       <path d="M 10.6875 12.40625 
L 21 12.40625 
L 21 0 
L 10.6875 0 
z
" id="DejaVuSans-46"/>
      </defs>
      <use xlink:href="#DejaVuSans-48"/>
      <use x="63.623047" xlink:href="#DejaVuSans-46"/>
      <use x="95.410156" xlink:href="#DejaVuSans-49"/>
     </g>
    </g>
    <g id="line2d_24">
     <path d="M 310.839063 180.704062 
L 330.839063 180.704062 
" style="fill:none;stroke:#2ca02c;stroke-linecap:square;stroke-width:1.5;"/>
    </g>
    <g id="line2d_25"/>
    <g id="text_17">
     <!-- 0.25 -->
     <g transform="translate(338.839063 184.204062)scale(0.1 -0.1)">
      <use xlink:href="#DejaVuSans-48"/>
      <use x="63.623047" xlink:href="#DejaVuSans-46"/>
      <use x="95.410156" xlink:href="#DejaVuSans-50"/>
      <use x="159.033203" xlink:href="#DejaVuSans-53"/>
     </g>
    </g>
    <g id="line2d_26">
     <path d="M 310.839063 195.382187 
L 330.839063 195.382187 
" style="fill:none;stroke:#d62728;stroke-linecap:square;stroke-width:1.5;"/>
    </g>
    <g id="line2d_27"/>
    <g id="text_18">
     <!-- 0.5 -->
     <g transform="translate(338.839063 198.882187)scale(0.1 -0.1)">
      <use xlink:href="#DejaVuSans-48"/>
      <use x="63.623047" xlink:href="#DejaVuSans-46"/>
      <use x="95.410156" xlink:href="#DejaVuSans-53"/>
     </g>
    </g>
    <g id="line2d_28">
     <path d="M 310.839063 210.060312 
L 330.839063 210.060312 
" style="fill:none;stroke:#9467bd;stroke-linecap:square;stroke-width:1.5;"/>
    </g>
    <g id="line2d_29"/>
    <g id="text_19">
     <!-- 0.75 -->
     <g transform="translate(338.839063 213.560312)scale(0.1 -0.1)">
      <defs>
       <path d="M 8.203125 72.90625 
L 55.078125 72.90625 
L 55.078125 68.703125 
L 28.609375 0 
L 18.3125 0 
L 43.21875 64.59375 
L 8.203125 64.59375 
z
" id="DejaVuSans-55"/>
      </defs>
      <use xlink:href="#DejaVuSans-48"/>
      <use x="63.623047" xlink:href="#DejaVuSans-46"/>
      <use x="95.410156" xlink:href="#DejaVuSans-55"/>
      <use x="159.033203" xlink:href="#DejaVuSans-53"/>
     </g>
    </g>
   </g>
  </g>
 </g>
 <defs>
  <clipPath id="p775c8e8eba">
   <rect height="217.44" width="334.8" x="35.304688" y="7.2"/>
  </clipPath>
 </defs>
</svg>
